<svg width="101" height="87" viewBox="0 0 101 87" fill="none" xmlns="http://www.w3.org/2000/svg">
<path opacity="0.7" d="M26.5487 42.4688C26.5487 41.4271 26.7571 40.4583 27.1737 39.5625C27.6112 38.6458 28.1842 37.8542 28.8925 37.1875C29.6217 36.5208 30.455 36 31.3925 35.625C32.33 35.25 33.3196 35.0625 34.3612 35.0625C36.0279 35.0625 37.4654 35.4167 38.6737 36.125C38.9029 36.2708 39.1112 36.375 39.2987 36.4375C39.5071 36.4792 39.7467 36.5 40.0175 36.5C40.2467 36.4792 40.4133 36.4688 40.5175 36.4688L45.2987 36.125L45.5175 36.375L45.33 38.1875H40.9237C41.7779 39.2917 42.205 40.5104 42.205 41.8438C42.205 43.0729 41.955 44.1562 41.455 45.0938C40.9758 46.0312 40.3404 46.8229 39.5487 47.4688C38.7779 48.0938 37.9133 48.5729 36.955 48.9062C36.0175 49.2188 35.0904 49.375 34.1737 49.375C33.3612 49.375 32.4967 49.2708 31.58 49.0625C31.1008 49.2917 30.6946 49.6354 30.3612 50.0938C30.0487 50.5312 29.8925 50.9479 29.8925 51.3438C29.8925 51.6354 29.9967 51.8958 30.205 52.125C30.4342 52.3333 30.705 52.5104 31.0175 52.6562C31.3508 52.8021 31.6946 52.9062 32.0487 52.9688C32.4237 53.0312 32.7571 53.0625 33.0487 53.0625C33.8612 53.0625 34.705 53.0521 35.58 53.0312C36.4758 52.9896 37.3092 52.9688 38.08 52.9688C38.9133 52.9688 39.7467 53.0521 40.58 53.2188C41.4133 53.3646 42.1633 53.6354 42.83 54.0312C43.5175 54.4479 44.0696 55.0104 44.4862 55.7188C44.9029 56.4271 45.1112 57.3229 45.1112 58.4062C45.1112 59.7188 44.8196 60.9479 44.2362 62.0938C43.6529 63.2604 42.8404 64.2604 41.7987 65.0938C40.7571 65.9479 39.5071 66.6146 38.0487 67.0938C36.6112 67.5938 35.0279 67.8438 33.2987 67.8438C32.4029 67.8438 31.4758 67.7188 30.5175 67.4688C29.58 67.2396 28.7258 66.875 27.955 66.375C27.1842 65.8958 26.5487 65.2812 26.0487 64.5312C25.5696 63.8021 25.33 62.9375 25.33 61.9375C25.33 61.2292 25.4654 60.5729 25.7362 59.9688C26.0071 59.3854 26.3612 58.8438 26.7987 58.3438C27.2362 57.8438 27.7258 57.3854 28.2675 56.9688C28.8092 56.5521 29.3508 56.1562 29.8925 55.7812C29.0383 55.4688 28.2987 55.0521 27.6737 54.5312C27.0696 54.0104 26.7675 53.3542 26.7675 52.5625C26.7675 52.2083 26.8821 51.8333 27.1112 51.4375C27.3612 51.0417 27.6529 50.6562 27.9862 50.2812C28.3196 49.9062 28.6737 49.5625 29.0487 49.25C29.4237 48.9375 29.7467 48.6667 30.0175 48.4375C27.705 47.2708 26.5487 45.2812 26.5487 42.4688ZM34.8925 56.1562C34.205 56.1562 33.6321 56.1562 33.1737 56.1562C32.7362 56.1771 32.3717 56.2188 32.08 56.2812C31.7883 56.3438 31.5279 56.4375 31.2987 56.5625C31.0696 56.6875 30.83 56.8542 30.58 57.0625C29.9342 57.6042 29.455 58.2083 29.1425 58.875C28.83 59.5625 28.6737 60.2708 28.6737 61C28.6737 61.8542 28.8821 62.5729 29.2987 63.1562C29.7154 63.7396 30.2467 64.2083 30.8925 64.5625C31.5383 64.9375 32.2571 65.2083 33.0487 65.375C33.8404 65.5417 34.6112 65.625 35.3612 65.625C36.2987 65.625 37.1842 65.5208 38.0175 65.3125C38.8508 65.125 39.58 64.8125 40.205 64.375C40.83 63.9375 41.3196 63.375 41.6737 62.6875C42.0487 62 42.2362 61.1771 42.2362 60.2188C42.2362 59.3438 42.0487 58.6146 41.6737 58.0312C41.2987 57.4479 40.7571 57.0104 40.0487 56.7188C39.4446 56.4479 38.7779 56.2812 38.0487 56.2188C37.3196 56.1771 36.4758 56.1562 35.5175 56.1562H34.8925ZM34.6737 48C35.3404 48 35.9133 47.8438 36.3925 47.5312C36.8717 47.2188 37.2571 46.8125 37.5487 46.3125C37.8612 45.8125 38.0904 45.25 38.2362 44.625C38.3821 44 38.455 43.3854 38.455 42.7812C38.455 42.0312 38.3717 41.2812 38.205 40.5312C38.0592 39.7604 37.8092 39.0729 37.455 38.4688C37.1217 37.8646 36.6737 37.375 36.1112 37C35.5696 36.625 34.8925 36.4375 34.08 36.4375C33.3925 36.4375 32.8092 36.5938 32.33 36.9062C31.8508 37.1979 31.455 37.5938 31.1425 38.0938C30.8508 38.5938 30.6321 39.1562 30.4862 39.7812C30.3612 40.3854 30.2987 41 30.2987 41.625C30.2987 42.3333 30.3821 43.0625 30.5487 43.8125C30.7154 44.5625 30.9654 45.25 31.2987 45.875C31.6529 46.5 32.1008 47.0104 32.6425 47.4062C33.205 47.8021 33.8821 48 34.6737 48ZM58.0175 43.4062C58.0383 43.2604 58.0487 43.0833 58.0487 42.875V40.5938C58.0487 39.5312 57.7883 38.6562 57.2675 37.9688C56.7675 37.2604 55.955 36.9062 54.83 36.9062C54.2258 36.9062 53.705 37.0208 53.2675 37.25C52.8508 37.4583 52.4967 37.7396 52.205 38.0938C51.9342 38.4479 51.7258 38.8542 51.58 39.3125C51.455 39.7708 51.3925 40.25 51.3925 40.75C51.0592 41.0208 50.6008 41.1562 50.0175 41.1562C49.5383 41.1562 49.08 41.0521 48.6425 40.8438C48.2258 40.6146 48.0175 40.2812 48.0175 39.8438C48.0175 39.5104 48.1425 39.1667 48.3925 38.8125C48.6633 38.4583 49.0071 38.1146 49.4237 37.7812C49.8612 37.4271 50.3404 37.0938 50.8612 36.7812C51.3821 36.4688 51.9133 36.1979 52.455 35.9688C53.8508 35.3646 55.2258 35.0625 56.58 35.0625C57.2467 35.0625 57.8717 35.1562 58.455 35.3438C59.0383 35.5104 59.5487 35.7917 59.9862 36.1875C60.4237 36.5625 60.7675 37.0521 61.0175 37.6562C61.2675 38.2604 61.3925 38.9792 61.3925 39.8125C61.3925 41.0625 61.3717 42.5104 61.33 44.1562C61.2883 45.7812 61.2675 47.5938 61.2675 49.5938C61.2675 50.4062 61.4237 51.0417 61.7362 51.5C62.0487 51.9583 62.4862 52.1875 63.0487 52.1875C63.5487 52.1875 64.0904 52.0104 64.6737 51.6562L65.2362 52.5C64.7571 52.9583 64.1633 53.3333 63.455 53.625C62.7675 53.9167 62.0696 54.0625 61.3612 54.0625C60.6321 54.0625 59.955 53.8646 59.33 53.4688C58.7258 53.0729 58.3196 52.3958 58.1112 51.4375C57.9029 51.5833 57.58 51.8021 57.1425 52.0938C56.705 52.3854 56.205 52.6875 55.6425 53C55.08 53.2917 54.4758 53.5521 53.83 53.7812C53.1842 54.0104 52.5696 54.125 51.9862 54.125C51.2987 54.125 50.6737 54 50.1112 53.75C49.5487 53.5 49.0592 53.1667 48.6425 52.75C48.2467 52.3125 47.9342 51.8229 47.705 51.2812C47.4967 50.7188 47.3925 50.125 47.3925 49.5C47.3925 48.4375 47.6946 47.5312 48.2987 46.7812C48.9237 46.0104 49.7362 45.4167 50.7362 45C51.4654 44.7083 52.4342 44.4167 53.6425 44.125C54.8717 43.8125 56.33 43.5729 58.0175 43.4062ZM57.955 49.9375C57.955 49.0625 57.9654 48.2083 57.9862 47.375C58.0071 46.5417 58.0175 45.6875 58.0175 44.8125C57.455 44.875 56.8821 44.9583 56.2987 45.0625C55.7362 45.1458 55.1842 45.2604 54.6425 45.4062C54.1008 45.5521 53.5904 45.7396 53.1112 45.9688C52.6321 46.1979 52.2258 46.4688 51.8925 46.7812C51.3717 47.2396 51.1112 47.8333 51.1112 48.5625C51.1112 49.4375 51.33 50.1771 51.7675 50.7812C52.2258 51.3854 52.9237 51.6875 53.8612 51.6875C54.5279 51.6875 55.2258 51.5312 55.955 51.2188C56.6842 50.9062 57.3508 50.4792 57.955 49.9375ZM73.1425 35.3125C73.08 35.8333 73.0279 36.3958 72.9862 37C72.9446 37.6042 72.9029 38.2083 72.8612 38.8125C72.8404 39.3958 72.8196 39.9479 72.7987 40.4688C72.7987 40.9896 72.7987 41.4375 72.7987 41.8125V49.8125C72.7987 50.875 72.7987 51.8646 72.7987 52.7812C72.8196 53.6771 72.83 54.4375 72.83 55.0625V56.3438C72.83 57.2812 72.7467 58.1667 72.58 59C72.4133 59.8542 72.205 60.6042 71.955 61.25C71.4758 62.4375 70.6425 63.625 69.455 64.8125C68.2883 66 66.9133 67.0625 65.33 68L64.58 66.875C65.83 66 66.7883 65.0729 67.455 64.0938C68.1217 63.1354 68.6008 62.1042 68.8925 61C69.205 59.9167 69.3717 58.75 69.3925 57.5C69.4342 56.2708 69.455 54.9375 69.455 53.5V40.4375C69.455 39.8542 69.4237 39.3958 69.3612 39.0625C69.2987 38.7292 69.1633 38.4688 68.955 38.2812C68.7675 38.0938 68.4758 37.9479 68.08 37.8438C67.705 37.7396 67.205 37.6354 66.58 37.5312L66.4862 36.625C67.1321 36.5 67.7779 36.375 68.4237 36.25C69.0904 36.1042 69.705 35.9583 70.2675 35.8125C70.8508 35.6667 71.3612 35.5312 71.7987 35.4062C72.2571 35.2812 72.6008 35.1667 72.83 35.0625L73.1425 35.3125ZM68.7675 27.5625C68.7675 26.875 68.9758 26.3229 69.3925 25.9062C69.8092 25.4688 70.3612 25.25 71.0487 25.25C71.7779 25.25 72.3508 25.4688 72.7675 25.9062C73.205 26.3229 73.4237 26.875 73.4237 27.5625C73.4237 28.25 73.205 28.8125 72.7675 29.25C72.3508 29.6667 71.7779 29.875 71.0487 29.875C70.3612 29.875 69.8092 29.6667 69.3925 29.25C68.9758 28.8125 68.7675 28.25 68.7675 27.5625Z" fill="#A61345"/>
<path opacity="0.47" d="M82.3357 12.2812L82.492 12.4062C82.4086 12.6771 82.3357 12.8854 82.2732 13.0312C82.2107 13.1771 82.0857 13.375 81.8982 13.625C81.0024 14.0625 80.2003 14.4583 79.492 14.8125C78.8045 15.1458 78.0128 15.5312 77.117 15.9688C76.242 16.4062 75.3566 16.8542 74.4607 17.3125C73.5649 17.75 72.7003 18.1875 71.867 18.625C71.0336 19.0417 70.3149 19.4167 69.7107 19.75C68.2941 20.5208 67.0961 21.2292 66.117 21.875C65.1378 22.5208 64.3357 23.0833 63.7107 23.5625C63.0857 24.0208 62.4607 24.5104 61.8357 25.0312L61.7107 24.8438C61.7316 24.6562 61.7836 24.4896 61.867 24.3438C61.9711 24.1979 62.117 24 62.3045 23.75C62.492 23.5 62.7628 23.1771 63.117 22.7812C63.4503 22.4271 64.2107 21.8333 65.3982 21C66.5857 20.1667 68.1691 19.2188 70.1482 18.1562C70.7732 17.8229 71.5024 17.4479 72.3357 17.0312C73.1899 16.5938 74.0649 16.1667 74.9607 15.75C75.8566 15.3125 76.742 14.8854 77.617 14.4688C78.492 14.0521 79.2732 13.6875 79.9607 13.375C80.6691 13.0417 81.4607 12.6771 82.3357 12.2812ZM62.3982 30.75C63.7732 31.125 65.2836 31.8125 66.9295 32.8125C68.5753 33.8125 70.242 35.0625 71.9295 36.5625C72.5753 37.1458 73.1066 37.7188 73.5232 38.2812C73.9607 38.8438 74.3045 39.4375 74.5545 40.0625C74.8253 40.6667 75.0128 41.3125 75.117 42C75.2211 42.6667 75.2732 43.4062 75.2732 44.2188C75.2732 44.7812 75.1691 45.3958 74.9607 46.0625C74.7732 46.7083 74.5024 47.3438 74.1482 47.9688C73.8149 48.5729 73.4086 49.125 72.9295 49.625C72.4711 50.1042 71.9607 50.4583 71.3982 50.6875C70.7732 51 69.9295 51.3333 68.867 51.6875C67.8253 52.0417 66.6482 52.3646 65.3357 52.6562C64.0232 52.9479 62.6066 53.1979 61.0857 53.4062C59.5649 53.5938 58.0232 53.6875 56.4607 53.6875C54.9191 53.6875 53.3774 53.5938 51.8357 53.4062C50.3149 53.1979 48.9399 52.8333 47.7107 52.3125C46.4816 51.7708 45.4816 51.0417 44.7107 50.125C43.9399 49.1875 43.5545 48 43.5545 46.5625C43.5545 45.9167 43.6378 45.3229 43.8045 44.7812C43.992 44.2396 44.2003 43.7708 44.4295 43.375C44.6586 42.9583 44.8774 42.6354 45.0857 42.4062C45.3149 42.1771 45.4816 42.0625 45.5857 42.0625L45.7107 42.1875C45.7107 42.3125 45.6274 42.5312 45.4607 42.8438C45.3149 43.1562 45.242 43.6146 45.242 44.2188C45.242 45.2188 45.492 46.0833 45.992 46.8125C46.492 47.5417 47.1899 48.1354 48.0857 48.5938C49.0024 49.0521 50.0857 49.3958 51.3357 49.625C52.5857 49.8333 53.9711 49.9375 55.492 49.9375C57.0336 49.9375 58.5753 49.875 60.117 49.75C61.6586 49.625 63.1378 49.4479 64.5545 49.2188C65.992 48.9688 67.3253 48.6771 68.5545 48.3438C69.8045 47.9896 70.9086 47.5729 71.867 47.0938C72.0545 47.0104 72.2628 46.8958 72.492 46.75C72.742 46.6042 72.9711 46.4583 73.1795 46.3125C73.3878 46.1458 73.5649 45.9896 73.7107 45.8438C73.8566 45.6979 73.9295 45.5729 73.9295 45.4688C73.9295 44.8438 73.8461 44.2708 73.6795 43.75C73.5128 43.2292 73.2628 42.7292 72.9295 42.25C72.617 41.7708 72.2211 41.3021 71.742 40.8438C71.2836 40.3646 70.7628 39.875 70.1795 39.375C69.3045 38.625 68.4816 38.0208 67.7107 37.5625C66.9607 37.0833 66.1795 36.6667 65.367 36.3125C65.367 36.7708 65.1899 37 64.8357 37C64.6899 37 64.4191 36.9583 64.0232 36.875C63.6274 36.7708 63.2003 36.6354 62.742 36.4688C62.3045 36.2812 61.8774 36.0625 61.4607 35.8125C61.0441 35.5625 60.742 35.2812 60.5545 34.9688C60.3253 34.6146 60.1586 34.25 60.0545 33.875C59.9503 33.5 59.8982 33.125 59.8982 32.75C59.8982 32.4375 59.9399 32.0938 60.0232 31.7188C60.1066 31.3438 60.2107 30.9688 60.3357 30.5938C60.4607 30.2188 60.5961 29.875 60.742 29.5625C60.8878 29.2292 61.0232 28.9479 61.1482 28.7188C61.4816 28.1354 62.0232 27.5104 62.7732 26.8438C63.5232 26.1562 64.4191 25.4375 65.4607 24.6875C66.5232 23.9375 67.7107 23.1667 69.0232 22.375C70.3357 21.5833 71.7211 20.7917 73.1795 20C74.1378 19.4792 75.1795 18.9479 76.3045 18.4062C77.4295 17.8438 78.5545 17.3021 79.6795 16.7812C80.8045 16.2396 81.8982 15.7396 82.9607 15.2812C84.0232 14.8229 84.9711 14.4167 85.8045 14.0625C86.6378 13.7083 87.6274 13.3646 88.7732 13.0312C88.7732 13.1562 88.7316 13.3646 88.6482 13.6562C88.5857 13.9271 88.5024 14.2292 88.3982 14.5625C88.3149 14.875 88.2107 15.1771 88.0857 15.4688C87.9816 15.7396 87.8878 15.9375 87.8045 16.0625C86.8878 16.5208 86.0649 16.9167 85.3357 17.25C84.6066 17.5625 83.7732 17.9375 82.8357 18.375C81.8982 18.7917 80.9295 19.2396 79.9295 19.7188C78.9295 20.1771 77.9295 20.6562 76.9295 21.1562C75.9295 21.6562 75.0024 22.1354 74.1482 22.5938C72.9816 23.2188 71.8045 23.8646 70.617 24.5312C69.4295 25.1979 68.3045 25.875 67.242 26.5625C66.1795 27.25 65.2211 27.9479 64.367 28.6562C63.5336 29.3438 62.8774 30.0417 62.3982 30.75Z" fill="#D48BA4"/>
<path opacity="0.47" d="M25.7585 37.3438C25.8835 36.8229 25.998 36.4167 26.1022 36.125C26.2064 35.8333 26.321 35.5312 26.446 35.2188C26.571 34.8854 26.7064 34.5729 26.8522 34.2812C27.0189 34.0104 27.3314 33.75 27.7897 33.5C28.2689 33.25 28.8105 33.0312 29.4147 32.8438C30.0189 32.6354 30.6439 32.4792 31.2897 32.375C31.9355 32.25 32.5085 32.1875 33.0085 32.1875C33.2793 32.1875 33.6647 32.2083 34.1647 32.25C34.6855 32.2917 35.248 32.3438 35.8522 32.4062C36.4772 32.4688 37.123 32.5208 37.7897 32.5625C38.4564 32.6042 39.071 32.625 39.6335 32.625C40.1543 32.625 40.7376 32.625 41.3835 32.625C42.0501 32.6042 42.7168 32.5833 43.3835 32.5625C44.071 32.5417 44.748 32.5208 45.4147 32.5C46.0814 32.4792 46.6855 32.4583 47.2272 32.4375C47.7689 32.4167 48.446 32.3958 49.2585 32.375C49.3835 32.375 49.4772 32.4583 49.5397 32.625C49.3314 33.2917 49.1543 33.8125 49.0085 34.1875C48.8835 34.5625 48.6751 35.1042 48.3835 35.8125C47.821 35.9792 47.2897 36.1354 46.7897 36.2812C46.2897 36.4271 45.6543 36.6458 44.8835 36.9375C44.1335 37.2083 43.2272 37.5729 42.1647 38.0312C41.4564 38.3438 40.6335 38.7917 39.696 39.375C38.7585 39.9375 37.7897 40.625 36.7897 41.4375C35.8105 42.2292 34.8418 43.1354 33.8835 44.1562C32.946 45.1771 32.0918 46.2917 31.321 47.5C30.571 48.7292 29.9668 50.0417 29.5085 51.4375C29.0501 52.8542 28.821 54.3438 28.821 55.9062C28.821 57.5104 29.1022 58.8958 29.6647 60.0625C30.248 61.2292 31.0085 62.2188 31.946 63.0312C32.8835 63.8438 33.946 64.4896 35.1335 64.9688C36.321 65.4688 37.5397 65.8542 38.7897 66.125C40.0397 66.4167 41.2585 66.6042 42.446 66.6875C43.6335 66.7917 44.6855 66.8438 45.6022 66.8438C46.5397 66.8438 47.5918 66.7917 48.7585 66.6875C49.9251 66.6042 51.0605 66.5104 52.1647 66.4062C53.2689 66.3021 54.2585 66.1979 55.1335 66.0938C56.0085 66.0104 56.623 65.9688 56.9772 65.9688L57.2272 66.0625C56.2272 66.6458 55.3418 67.1042 54.571 67.4375C53.821 67.7917 52.9876 68.1562 52.071 68.5312C51.1543 68.9271 50.2689 69.2917 49.4147 69.625C48.5814 69.9583 47.8418 70.2396 47.196 70.4688C46.5501 70.6979 46.1126 70.8333 45.8835 70.875C44.4251 70.875 42.9564 70.8229 41.4772 70.7188C40.0189 70.6146 38.6126 70.4062 37.2585 70.0938C35.9043 69.7812 34.6335 69.3333 33.446 68.75C32.2793 68.1875 31.2585 67.4271 30.3835 66.4688C29.5293 65.5104 28.8522 64.3438 28.3522 62.9688C27.873 61.6146 27.6335 59.9792 27.6335 58.0625C27.6335 55.5208 27.9355 53.1979 28.5397 51.0938C29.1647 49.0104 29.946 47.1354 30.8835 45.4688C31.8418 43.8021 32.8939 42.3333 34.0397 41.0625C35.2064 39.7917 36.3418 38.6979 37.446 37.7812C37.8001 37.4896 38.2064 37.1979 38.6647 36.9062C39.1439 36.5938 39.5397 36.3542 39.8522 36.1875H36.6335C35.571 36.1875 34.3626 36.1979 33.0085 36.2188C32.7585 36.2188 32.2793 36.3021 31.571 36.4688C30.8626 36.6354 30.1126 36.8125 29.321 37C28.5501 37.1875 27.4876 37.4479 26.1335 37.7812C25.9668 37.7812 25.8626 37.75 25.821 37.6875C25.7793 37.625 25.7585 37.5104 25.7585 37.3438ZM40.6022 51.8438L43.7585 54L42.1647 57.2812L39.0397 55.125L40.6022 51.8438Z" fill="#D48BA4"/>
<path d="M4.63419 79.7651C4.63777 79.7401 4.63956 79.7096 4.63956 79.6738V79.2817C4.63956 79.0991 4.5948 78.9487 4.50528 78.8306C4.41934 78.7088 4.27969 78.6479 4.08633 78.6479C3.98249 78.6479 3.89297 78.6676 3.81778 78.707C3.74616 78.7428 3.68529 78.7912 3.63516 78.8521C3.58861 78.9129 3.55281 78.9827 3.52774 79.0615C3.50626 79.1403 3.49551 79.2227 3.49551 79.3086C3.43822 79.3551 3.35945 79.3784 3.25919 79.3784C3.17683 79.3784 3.09805 79.3605 3.02286 79.3247C2.95124 79.2853 2.91544 79.228 2.91544 79.1528C2.91544 79.0955 2.93692 79.0365 2.97989 78.9756C3.02644 78.9147 3.08552 78.8556 3.15714 78.7983C3.23233 78.7375 3.31469 78.6802 3.40421 78.6265C3.49372 78.5728 3.58503 78.5262 3.67813 78.4868C3.91804 78.383 4.15437 78.3311 4.38712 78.3311C4.5017 78.3311 4.60912 78.3472 4.70938 78.3794C4.80964 78.408 4.89737 78.4564 4.97256 78.5244C5.04776 78.5889 5.10684 78.673 5.14981 78.7769C5.19278 78.8807 5.21426 79.0042 5.21426 79.1475C5.21426 79.3623 5.21068 79.6112 5.20352 79.894C5.19636 80.1733 5.19278 80.4849 5.19278 80.8286C5.19278 80.9683 5.21964 81.0775 5.27335 81.1562C5.32706 81.235 5.40225 81.2744 5.49893 81.2744C5.58487 81.2744 5.67797 81.244 5.77823 81.1831L5.87491 81.3281C5.79255 81.4069 5.6905 81.4714 5.56876 81.5215C5.45059 81.5716 5.33064 81.5967 5.20889 81.5967C5.08357 81.5967 4.96719 81.5627 4.85977 81.4946C4.75593 81.4266 4.68611 81.3102 4.6503 81.1455C4.61449 81.1706 4.55899 81.2082 4.4838 81.2583C4.4086 81.3084 4.32266 81.3604 4.22598 81.4141C4.1293 81.4642 4.02546 81.509 3.91446 81.5483C3.80346 81.5877 3.69783 81.6074 3.59756 81.6074C3.4794 81.6074 3.37198 81.5859 3.2753 81.543C3.17862 81.5 3.09447 81.4427 3.02286 81.3711C2.95482 81.2959 2.90111 81.2118 2.86172 81.1187C2.82592 81.022 2.80801 80.9199 2.80801 80.8125C2.80801 80.6299 2.85993 80.4741 2.96378 80.3452C3.0712 80.2127 3.21085 80.1107 3.38272 80.0391C3.50805 79.9889 3.67455 79.9388 3.88223 79.8887C4.0935 79.835 4.34415 79.7938 4.63419 79.7651ZM4.62344 80.8877C4.62344 80.7373 4.62523 80.5905 4.62881 80.4473C4.6324 80.304 4.63419 80.1572 4.63419 80.0068C4.53751 80.0176 4.43904 80.0319 4.33878 80.0498C4.2421 80.0641 4.14721 80.0838 4.05411 80.1089C3.96101 80.134 3.87328 80.1662 3.79092 80.2056C3.70857 80.245 3.63874 80.2915 3.58145 80.3452C3.49193 80.424 3.44717 80.526 3.44717 80.6514C3.44717 80.8018 3.48477 80.9289 3.55997 81.0327C3.63874 81.1366 3.7587 81.1885 3.91983 81.1885C4.03441 81.1885 4.15437 81.1616 4.27969 81.1079C4.40502 81.0542 4.5196 80.9808 4.62344 80.8877ZM11.4286 75.7368C11.4179 75.8263 11.4071 75.932 11.3964 76.0537C11.3892 76.1755 11.3821 76.2972 11.3749 76.4189C11.3713 76.5407 11.3677 76.6553 11.3642 76.7627C11.3606 76.8701 11.3588 76.9561 11.3588 77.0205V80.6943C11.3588 80.7982 11.3642 80.8805 11.3749 80.9414C11.3857 80.9987 11.4107 81.0435 11.4501 81.0757C11.4895 81.1079 11.5468 81.133 11.622 81.1509C11.7008 81.1652 11.8046 81.1813 11.9335 81.1992L11.955 81.3496C11.8404 81.3675 11.724 81.3872 11.6059 81.4087C11.4877 81.4266 11.3767 81.4463 11.2729 81.4678C11.1726 81.4893 11.0831 81.509 11.0043 81.5269C10.9291 81.5483 10.8736 81.5645 10.8378 81.5752L10.7841 81.5322V81.1831C10.6086 81.3299 10.4314 81.4355 10.2523 81.5C10.0769 81.568 9.89965 81.6021 9.72061 81.6021C9.53441 81.6021 9.35896 81.5662 9.19424 81.4946C9.02953 81.423 8.88451 81.3228 8.75919 81.1938C8.63744 81.0649 8.54076 80.9092 8.46915 80.7266C8.39753 80.5404 8.36172 80.3345 8.36172 80.1089C8.36172 79.8511 8.41006 79.6147 8.50674 79.3999C8.607 79.1815 8.74128 78.9935 8.90958 78.8359C9.08145 78.6784 9.28018 78.5549 9.50577 78.4653C9.73135 78.3758 9.97305 78.3311 10.2309 78.3311C10.281 78.3311 10.3598 78.3364 10.4672 78.3472C10.5746 78.3543 10.6802 78.3704 10.7841 78.3955V76.6123C10.7841 76.512 10.7787 76.4333 10.768 76.376C10.7572 76.3151 10.7304 76.2686 10.6874 76.2363C10.648 76.2005 10.5889 76.1737 10.5102 76.1558C10.435 76.1379 10.3311 76.1182 10.1986 76.0967L10.1825 75.9463C10.315 75.9248 10.4457 75.9015 10.5746 75.8765C10.7035 75.8514 10.8217 75.8281 10.9291 75.8066C11.0401 75.7816 11.1332 75.7601 11.2084 75.7422C11.2872 75.7207 11.3427 75.7046 11.3749 75.6938L11.4286 75.7368ZM10.7841 78.938C10.6874 78.827 10.571 78.7446 10.435 78.6909C10.2989 78.6372 10.161 78.6104 10.0214 78.6104C9.84952 78.6104 9.70092 78.6462 9.57559 78.7178C9.45027 78.7894 9.34643 78.8843 9.26407 79.0024C9.18171 79.1206 9.11905 79.2567 9.07608 79.4106C9.03669 79.5646 9.017 79.724 9.017 79.8887C9.017 80.057 9.03848 80.2199 9.08145 80.3774C9.128 80.5314 9.19603 80.6675 9.28555 80.7856C9.37507 80.9038 9.48428 80.9987 9.61319 81.0703C9.74568 81.1419 9.89607 81.1777 10.0644 81.1777C10.2148 81.1777 10.349 81.1562 10.4672 81.1133C10.5889 81.0667 10.6946 81.0059 10.7841 80.9307V78.938ZM13.9315 81.5C13.817 81.5 13.6791 81.4982 13.518 81.4946C13.3568 81.491 13.1903 81.4893 13.0185 81.4893C12.8788 81.4893 12.7427 81.491 12.6103 81.4946C12.4778 81.4982 12.3614 81.5 12.2611 81.5L12.2504 81.3281C12.3686 81.3174 12.4617 81.3031 12.5297 81.2852C12.6013 81.2637 12.6568 81.2297 12.6962 81.1831C12.7356 81.1366 12.7607 81.0739 12.7714 80.9951C12.7857 80.9128 12.7929 80.8035 12.7929 80.6675V79.2549C12.7929 79.1546 12.7875 79.0758 12.7768 79.0186C12.766 78.9613 12.7427 78.9165 12.7069 78.8843C12.6747 78.8521 12.6246 78.827 12.5565 78.8091C12.4921 78.7912 12.4062 78.7733 12.2987 78.7554L12.2826 78.5996C12.3936 78.5781 12.5046 78.5566 12.6156 78.5352C12.7302 78.5101 12.8358 78.485 12.9325 78.46C13.0328 78.4349 13.1205 78.4116 13.1957 78.3901C13.2745 78.3687 13.3336 78.349 13.373 78.3311L13.4267 78.374C13.4159 78.4635 13.407 78.5584 13.3998 78.6587C13.3926 78.759 13.3873 78.8592 13.3837 78.9595C13.3801 79.0562 13.3765 79.1493 13.373 79.2388C13.373 79.3247 13.373 79.3999 13.373 79.4644V80.8877C13.373 80.9736 13.3783 81.0435 13.3891 81.0972C13.3998 81.1473 13.4231 81.1867 13.4589 81.2153C13.4983 81.244 13.5556 81.2637 13.6308 81.2744C13.706 81.2852 13.8098 81.2941 13.9423 81.3013L13.9315 81.5ZM12.6801 77.042C12.6801 76.9238 12.7159 76.8289 12.7875 76.7573C12.8591 76.6821 12.954 76.6445 13.0722 76.6445C13.1975 76.6445 13.296 76.6821 13.3676 76.7573C13.4428 76.8289 13.4804 76.9238 13.4804 77.042C13.4804 77.1602 13.4428 77.2568 13.3676 77.332C13.296 77.4036 13.1975 77.4395 13.0722 77.4395C12.954 77.4395 12.8591 77.4036 12.7875 77.332C12.7159 77.2568 12.6801 77.1602 12.6801 77.042ZM14.4042 79.604C14.4042 79.425 14.44 79.2585 14.5116 79.1045C14.5868 78.9469 14.6853 78.8109 14.807 78.6963C14.9324 78.5817 15.0756 78.4922 15.2367 78.4277C15.3979 78.3633 15.5679 78.3311 15.747 78.3311C16.0334 78.3311 16.2805 78.3919 16.4882 78.5137C16.5276 78.5387 16.5634 78.5566 16.5956 78.5674C16.6314 78.5745 16.6726 78.5781 16.7191 78.5781C16.7585 78.5745 16.7872 78.5728 16.8051 78.5728L17.6269 78.5137L17.6645 78.5566L17.6322 78.8682H16.8749C17.0217 79.0579 17.0951 79.2674 17.0951 79.4966C17.0951 79.7078 17.0522 79.894 16.9662 80.0552C16.8839 80.2163 16.7746 80.3524 16.6386 80.4634C16.5061 80.5708 16.3575 80.6532 16.1928 80.7104C16.0316 80.7642 15.8723 80.791 15.7148 80.791C15.5751 80.791 15.4265 80.7731 15.269 80.7373C15.1866 80.7767 15.1168 80.8358 15.0595 80.9146C15.0058 80.9897 14.9789 81.0614 14.9789 81.1294C14.9789 81.1795 14.9968 81.2243 15.0326 81.2637C15.072 81.2995 15.1186 81.3299 15.1723 81.355C15.2296 81.38 15.2886 81.3979 15.3495 81.4087C15.414 81.4194 15.4713 81.4248 15.5214 81.4248C15.661 81.4248 15.8061 81.423 15.9565 81.4194C16.1104 81.4123 16.2537 81.4087 16.3861 81.4087C16.5294 81.4087 16.6726 81.423 16.8158 81.4517C16.9591 81.4767 17.088 81.5233 17.2025 81.5913C17.3207 81.6629 17.4156 81.7596 17.4872 81.8813C17.5588 82.0031 17.5946 82.1571 17.5946 82.3433C17.5946 82.5688 17.5445 82.7801 17.4442 82.9771C17.344 83.1776 17.2043 83.3494 17.0253 83.4927C16.8463 83.6395 16.6314 83.7541 16.3808 83.8364C16.1337 83.9224 15.8616 83.9653 15.5644 83.9653C15.4104 83.9653 15.251 83.9438 15.0863 83.9009C14.9252 83.8615 14.7784 83.7988 14.6459 83.7129C14.5134 83.6305 14.4042 83.5249 14.3183 83.396C14.2359 83.2707 14.1947 83.1221 14.1947 82.9502C14.1947 82.8285 14.218 82.7157 14.2646 82.6118C14.3111 82.5116 14.372 82.4185 14.4472 82.3325C14.5224 82.2466 14.6065 82.1678 14.6996 82.0962C14.7927 82.0246 14.8858 81.9565 14.9789 81.8921C14.8321 81.8384 14.705 81.7668 14.5976 81.6772C14.4937 81.5877 14.4418 81.4749 14.4418 81.3389C14.4418 81.278 14.4615 81.2135 14.5009 81.1455C14.5439 81.0775 14.594 81.0112 14.6513 80.9468C14.7086 80.8823 14.7694 80.8232 14.8339 80.7695C14.8983 80.7158 14.9538 80.6693 15.0004 80.6299C14.6029 80.4294 14.4042 80.0874 14.4042 79.604ZM15.8383 81.9565C15.7201 81.9565 15.6217 81.9565 15.5429 81.9565C15.4677 81.9601 15.405 81.9673 15.3549 81.978C15.3048 81.9888 15.26 82.0049 15.2206 82.0264C15.1812 82.0479 15.14 82.0765 15.0971 82.1123C14.9861 82.2054 14.9037 82.3092 14.85 82.4238C14.7963 82.542 14.7694 82.6637 14.7694 82.7891C14.7694 82.9359 14.8052 83.0594 14.8769 83.1597C14.9485 83.2599 15.0398 83.3405 15.1508 83.4014C15.2618 83.4658 15.3853 83.5124 15.5214 83.541C15.6575 83.5697 15.7899 83.584 15.9189 83.584C16.08 83.584 16.2322 83.5661 16.3754 83.5303C16.5186 83.498 16.644 83.4443 16.7514 83.3691C16.8588 83.2939 16.9429 83.1973 17.0038 83.0791C17.0683 82.9609 17.1005 82.8195 17.1005 82.6548C17.1005 82.5044 17.0683 82.3791 17.0038 82.2788C16.9394 82.1785 16.8463 82.1034 16.7245 82.0532C16.6207 82.0067 16.5061 81.978 16.3808 81.9673C16.2554 81.9601 16.1104 81.9565 15.9457 81.9565H15.8383ZM15.8007 80.5547C15.9153 80.5547 16.0137 80.5278 16.0961 80.4741C16.1785 80.4204 16.2447 80.3506 16.2948 80.2646C16.3485 80.1787 16.3879 80.082 16.413 79.9746C16.4381 79.8672 16.4506 79.7616 16.4506 79.6577C16.4506 79.5288 16.4363 79.3999 16.4076 79.271C16.3826 79.1385 16.3396 79.0203 16.2787 78.9165C16.2214 78.8127 16.1444 78.7285 16.0478 78.6641C15.9547 78.5996 15.8383 78.5674 15.6986 78.5674C15.5805 78.5674 15.4802 78.5942 15.3979 78.6479C15.3155 78.6981 15.2475 78.7661 15.1938 78.8521C15.1436 78.938 15.106 79.0347 15.081 79.1421C15.0595 79.2459 15.0487 79.3516 15.0487 79.459C15.0487 79.5807 15.0631 79.7061 15.0917 79.835C15.1204 79.9639 15.1633 80.082 15.2206 80.1895C15.2815 80.2969 15.3585 80.3846 15.4516 80.4526C15.5482 80.5207 15.6646 80.5547 15.8007 80.5547ZM19.6142 81.5C19.4996 81.5 19.3617 81.4982 19.2006 81.4946C19.0395 81.491 18.873 81.4893 18.7011 81.4893C18.5614 81.4893 18.4254 81.491 18.2929 81.4946C18.1604 81.4982 18.044 81.5 17.9438 81.5L17.933 81.3281C18.0512 81.3174 18.1443 81.3031 18.2123 81.2852C18.2839 81.2637 18.3394 81.2297 18.3788 81.1831C18.4182 81.1366 18.4433 81.0739 18.454 80.9951C18.4683 80.9128 18.4755 80.8035 18.4755 80.6675V79.2549C18.4755 79.1546 18.4701 79.0758 18.4594 79.0186C18.4486 78.9613 18.4254 78.9165 18.3896 78.8843C18.3573 78.8521 18.3072 78.827 18.2392 78.8091C18.1747 78.7912 18.0888 78.7733 17.9814 78.7554L17.9652 78.5996C18.0762 78.5781 18.1872 78.5566 18.2982 78.5352C18.4128 78.5101 18.5185 78.485 18.6151 78.46C18.7154 78.4349 18.8031 78.4116 18.8783 78.3901C18.9571 78.3687 19.0162 78.349 19.0556 78.3311L19.1093 78.374C19.0985 78.4635 19.0896 78.5584 19.0824 78.6587C19.0753 78.759 19.0699 78.8592 19.0663 78.9595C19.0627 79.0562 19.0592 79.1493 19.0556 79.2388C19.0556 79.3247 19.0556 79.3999 19.0556 79.4644V80.8877C19.0556 80.9736 19.0609 81.0435 19.0717 81.0972C19.0824 81.1473 19.1057 81.1867 19.1415 81.2153C19.1809 81.244 19.2382 81.2637 19.3134 81.2744C19.3886 81.2852 19.4924 81.2941 19.6249 81.3013L19.6142 81.5ZM18.3627 77.042C18.3627 76.9238 18.3985 76.8289 18.4701 76.7573C18.5417 76.6821 18.6366 76.6445 18.7548 76.6445C18.8801 76.6445 18.9786 76.6821 19.0502 76.7573C19.1254 76.8289 19.163 76.9238 19.163 77.042C19.163 77.1602 19.1254 77.2568 19.0502 77.332C18.9786 77.4036 18.8801 77.4395 18.7548 77.4395C18.6366 77.4395 18.5417 77.4036 18.4701 77.332C18.3985 77.2568 18.3627 77.1602 18.3627 77.042ZM20.9677 77.3105C20.9605 77.3965 20.9534 77.4967 20.9462 77.6113C20.9426 77.7223 20.939 77.8351 20.9355 77.9497C20.9319 78.0607 20.9283 78.1663 20.9247 78.2666C20.9247 78.3633 20.9247 78.4421 20.9247 78.5029L21.8432 78.4868L21.8861 78.5244L21.87 78.7983H20.9247V80.5278C20.9247 80.6675 20.9372 80.7821 20.9623 80.8716C20.991 80.9611 21.0286 81.0327 21.0751 81.0864C21.1252 81.1401 21.1825 81.1777 21.247 81.1992C21.3114 81.2171 21.3813 81.2261 21.4565 81.2261C21.5352 81.2261 21.6176 81.2171 21.7035 81.1992C21.7895 81.1813 21.8736 81.1634 21.956 81.1455L21.9936 81.3389C21.8539 81.4069 21.7035 81.4642 21.5424 81.5107C21.3813 81.5609 21.2255 81.5859 21.0751 81.5859C20.9713 81.5859 20.8746 81.5716 20.7851 81.543C20.6991 81.5179 20.6221 81.4731 20.5541 81.4087C20.4861 81.3442 20.4324 81.2601 20.393 81.1562C20.3572 81.0488 20.3393 80.9181 20.3393 80.7642V80.6191C20.3393 80.5547 20.3393 80.4508 20.3393 80.3076C20.3428 80.1644 20.3446 79.9728 20.3446 79.7329V78.7983H19.8612L19.8236 78.7607L19.8451 78.5513L20.3446 78.5137V78.0679C20.3446 77.9784 20.3428 77.887 20.3393 77.7939C20.3393 77.7008 20.3393 77.6113 20.3393 77.5254C20.393 77.5039 20.4485 77.4824 20.5058 77.4609C20.5631 77.4359 20.6186 77.4126 20.6723 77.3911C20.726 77.3696 20.7725 77.3499 20.8119 77.332C20.8549 77.3105 20.8871 77.2926 20.9086 77.2783L20.9677 77.3105ZM24.1635 79.7651C24.1671 79.7401 24.1689 79.7096 24.1689 79.6738V79.2817C24.1689 79.0991 24.1241 78.9487 24.0346 78.8306C23.9486 78.7088 23.809 78.6479 23.6156 78.6479C23.5118 78.6479 23.4223 78.6676 23.3471 78.707C23.2755 78.7428 23.2146 78.7912 23.1645 78.8521C23.1179 78.9129 23.0821 78.9827 23.057 79.0615C23.0356 79.1403 23.0248 79.2227 23.0248 79.3086C22.9675 79.3551 22.8887 79.3784 22.7885 79.3784C22.7061 79.3784 22.6273 79.3605 22.5522 79.3247C22.4805 79.2853 22.4447 79.228 22.4447 79.1528C22.4447 79.0955 22.4662 79.0365 22.5092 78.9756C22.5557 78.9147 22.6148 78.8556 22.6864 78.7983C22.7616 78.7375 22.844 78.6802 22.9335 78.6265C23.023 78.5728 23.1143 78.5262 23.2074 78.4868C23.4473 78.383 23.6837 78.3311 23.9164 78.3311C24.031 78.3311 24.1384 78.3472 24.2387 78.3794C24.3389 78.408 24.4267 78.4564 24.5019 78.5244C24.5771 78.5889 24.6361 78.673 24.6791 78.7769C24.7221 78.8807 24.7436 79.0042 24.7436 79.1475C24.7436 79.3623 24.74 79.6112 24.7328 79.894C24.7257 80.1733 24.7221 80.4849 24.7221 80.8286C24.7221 80.9683 24.7489 81.0775 24.8026 81.1562C24.8564 81.235 24.9315 81.2744 25.0282 81.2744C25.1142 81.2744 25.2073 81.244 25.3075 81.1831L25.4042 81.3281C25.3218 81.4069 25.2198 81.4714 25.0981 81.5215C24.9799 81.5716 24.8599 81.5967 24.7382 81.5967C24.6129 81.5967 24.4965 81.5627 24.3891 81.4946C24.2852 81.4266 24.2154 81.3102 24.1796 81.1455C24.1438 81.1706 24.0883 81.2082 24.0131 81.2583C23.9379 81.3084 23.852 81.3604 23.7553 81.4141C23.6586 81.4642 23.5548 81.509 23.4438 81.5483C23.3328 81.5877 23.2271 81.6074 23.1269 81.6074C23.0087 81.6074 22.9013 81.5859 22.8046 81.543C22.7079 81.5 22.6238 81.4427 22.5522 81.3711C22.4841 81.2959 22.4304 81.2118 22.391 81.1187C22.3552 81.022 22.3373 80.9199 22.3373 80.8125C22.3373 80.6299 22.3892 80.4741 22.4931 80.3452C22.6005 80.2127 22.7401 80.1107 22.912 80.0391C23.0373 79.9889 23.2038 79.9388 23.4115 79.8887C23.6228 79.835 23.8734 79.7938 24.1635 79.7651ZM24.1527 80.8877C24.1527 80.7373 24.1545 80.5905 24.1581 80.4473C24.1617 80.304 24.1635 80.1572 24.1635 80.0068C24.0668 80.0176 23.9683 80.0319 23.8681 80.0498C23.7714 80.0641 23.6765 80.0838 23.5834 80.1089C23.4903 80.134 23.4026 80.1662 23.3202 80.2056C23.2379 80.245 23.168 80.2915 23.1107 80.3452C23.0212 80.424 22.9765 80.526 22.9765 80.6514C22.9765 80.8018 23.0141 80.9289 23.0893 81.0327C23.168 81.1366 23.288 81.1885 23.4491 81.1885C23.5637 81.1885 23.6837 81.1616 23.809 81.1079C23.9343 81.0542 24.0489 80.9808 24.1527 80.8877ZM26.7523 75.7368C26.738 75.8299 26.7255 75.9373 26.7148 76.0591C26.704 76.1772 26.6951 76.2972 26.6879 76.4189C26.6843 76.5407 26.6807 76.6553 26.6772 76.7627C26.6772 76.8701 26.6772 76.9561 26.6772 77.0205V80.8877C26.6772 80.9736 26.6825 81.0435 26.6933 81.0972C26.704 81.1473 26.7291 81.1867 26.7685 81.2153C26.8079 81.244 26.8651 81.2637 26.9403 81.2744C27.0155 81.2852 27.1194 81.2941 27.2519 81.3013L27.2411 81.5C27.1265 81.5 26.9887 81.4982 26.8275 81.4946C26.67 81.491 26.5053 81.4893 26.3334 81.4893C26.1938 81.4893 26.0559 81.491 25.9198 81.4946C25.7838 81.4982 25.6656 81.5 25.5653 81.5L25.5492 81.3281C25.671 81.3174 25.7676 81.3031 25.8393 81.2852C25.9145 81.2637 25.9718 81.2297 26.0111 81.1831C26.0505 81.1366 26.0756 81.0739 26.0863 80.9951C26.1007 80.9128 26.1078 80.8035 26.1078 80.6675V76.6553C26.1078 76.5514 26.1024 76.4709 26.0917 76.4136C26.081 76.3527 26.0559 76.3062 26.0165 76.2739C25.9771 76.2417 25.9198 76.2166 25.8446 76.1987C25.773 76.1808 25.6746 76.1611 25.5492 76.1396L25.5331 75.9839C25.6405 75.9624 25.7515 75.9391 25.8661 75.9141C25.9807 75.889 26.0899 75.8639 26.1938 75.8389C26.3012 75.8138 26.3979 75.7887 26.4838 75.7637C26.5697 75.7386 26.6396 75.7153 26.6933 75.6938L26.7523 75.7368ZM31.4467 81.5C31.3321 81.5 31.2032 81.4982 31.06 81.4946C30.9167 81.491 30.7592 81.4893 30.5873 81.4893C30.4477 81.4893 30.308 81.491 30.1684 81.4946C30.0323 81.4982 29.9141 81.5 29.8139 81.5L29.7978 81.3281C29.9195 81.3174 30.0162 81.3013 30.0878 81.2798C30.163 81.2583 30.2203 81.2261 30.2597 81.1831C30.3026 81.1366 30.3295 81.0739 30.3402 80.9951C30.3546 80.9128 30.3617 80.8035 30.3617 80.6675V79.2764C30.3617 79.1761 30.3564 79.0973 30.3456 79.04C30.3349 78.9827 30.3116 78.938 30.2758 78.9058C30.2436 78.87 30.1934 78.8431 30.1254 78.8252C30.0609 78.8073 29.975 78.7894 29.8676 78.7715L29.8515 78.6211C29.941 78.6032 30.0359 78.5817 30.1361 78.5566C30.24 78.5316 30.3402 78.5065 30.4369 78.4814C30.5336 78.4528 30.6231 78.4259 30.7055 78.4009C30.7914 78.3758 30.8612 78.3525 30.9149 78.3311L30.9794 78.374C30.9687 78.4492 30.9597 78.5244 30.9525 78.5996C30.9454 78.6712 30.9418 78.7446 30.9418 78.8198C31.128 78.6659 31.3249 78.5459 31.5326 78.46C31.7403 78.374 31.939 78.3311 32.1288 78.3311C32.3079 78.3311 32.4672 78.3758 32.6068 78.4653C32.7501 78.5513 32.8575 78.6909 32.9291 78.8843C33.1332 78.7088 33.3445 78.5728 33.5629 78.4761C33.7813 78.3794 33.9944 78.3311 34.2021 78.3311C34.3238 78.3311 34.4384 78.3525 34.5458 78.3955C34.6568 78.4349 34.7517 78.4993 34.8305 78.5889C34.9093 78.6784 34.9719 78.793 35.0185 78.9326C35.065 79.0687 35.0883 79.2352 35.0883 79.4321V80.8877C35.0883 80.9736 35.0937 81.0435 35.1044 81.0972C35.1151 81.1473 35.1366 81.1867 35.1689 81.2153C35.2047 81.244 35.2566 81.2637 35.3246 81.2744C35.3926 81.2852 35.484 81.2941 35.5985 81.3013L35.5878 81.5C35.4732 81.5 35.3461 81.4982 35.2065 81.4946C35.0704 81.491 34.9182 81.4893 34.7499 81.4893C34.6103 81.4893 34.476 81.491 34.3471 81.4946C34.2218 81.4982 34.109 81.5 34.0087 81.5L33.9926 81.3281C34.1036 81.3174 34.1931 81.3031 34.2611 81.2852C34.3292 81.2673 34.3811 81.2386 34.4169 81.1992C34.4527 81.1562 34.476 81.0972 34.4867 81.022C34.4975 80.9432 34.5028 80.8358 34.5028 80.6997V79.5664C34.5028 79.2799 34.442 79.0741 34.3202 78.9487C34.2021 78.8198 34.0499 78.7554 33.8637 78.7554C33.7312 78.7554 33.5898 78.7858 33.4394 78.8467C33.289 78.9076 33.1386 78.9899 32.9882 79.0938C32.9954 79.1439 33.0007 79.1958 33.0043 79.2495C33.0115 79.2996 33.015 79.3534 33.015 79.4106V80.8877C33.015 80.9736 33.0204 81.0435 33.0312 81.0972C33.0419 81.1473 33.0634 81.1867 33.0956 81.2153C33.1314 81.244 33.1833 81.2637 33.2514 81.2744C33.3194 81.2852 33.4107 81.2941 33.5253 81.3013L33.5146 81.5C33.4 81.5 33.2729 81.4982 33.1332 81.4946C32.9971 81.491 32.845 81.4893 32.6767 81.4893C32.537 81.4893 32.4027 81.491 32.2738 81.4946C32.1485 81.4982 32.0357 81.5 31.9355 81.5L31.9193 81.3281C32.0303 81.3174 32.1199 81.3031 32.1879 81.2852C32.2559 81.2673 32.3079 81.2386 32.3437 81.1992C32.3795 81.1562 32.4027 81.0972 32.4135 81.022C32.4242 80.9432 32.4296 80.8358 32.4296 80.6997V79.5664C32.4296 79.2799 32.3687 79.0741 32.247 78.9487C32.1288 78.8198 31.9766 78.7554 31.7904 78.7554C31.6651 78.7554 31.529 78.784 31.3822 78.8413C31.2354 78.895 31.0886 78.972 30.9418 79.0723V80.8877C30.9418 80.9736 30.9454 81.0435 30.9525 81.0972C30.9633 81.1473 30.9866 81.1867 31.0224 81.2153C31.0582 81.244 31.1101 81.2637 31.1781 81.2744C31.2497 81.2852 31.3446 81.2941 31.4628 81.3013L31.4467 81.5ZM36.0443 80.0015C36.0443 79.7723 36.0855 79.5557 36.1679 79.3516C36.2538 79.1475 36.3684 78.9702 36.5116 78.8198C36.6584 78.6694 36.8303 78.5513 37.0273 78.4653C37.2242 78.3758 37.4355 78.3311 37.661 78.3311C37.9045 78.3311 38.1265 78.374 38.3271 78.46C38.5276 78.5423 38.6977 78.6569 38.8373 78.8037C38.9805 78.9469 39.0898 79.117 39.1649 79.314C39.2437 79.5073 39.2831 79.715 39.2831 79.937C39.2831 80.1698 39.2401 80.3882 39.1542 80.5923C39.0718 80.7928 38.9573 80.9683 38.8105 81.1187C38.6672 81.269 38.4954 81.389 38.2948 81.4785C38.0979 81.5645 37.8866 81.6074 37.661 81.6074C37.4176 81.6074 37.1955 81.5662 36.995 81.4839C36.7981 81.3979 36.628 81.2834 36.4848 81.1401C36.3451 80.9933 36.2359 80.8232 36.1571 80.6299C36.0819 80.4329 36.0443 80.2235 36.0443 80.0015ZM37.7309 81.3442C37.8884 81.3442 38.0227 81.3066 38.1337 81.2314C38.2483 81.1562 38.3414 81.0596 38.413 80.9414C38.4882 80.8232 38.5419 80.6908 38.5741 80.5439C38.6099 80.3971 38.6278 80.2503 38.6278 80.1035C38.6278 79.9316 38.6081 79.7562 38.5688 79.5771C38.5329 79.3981 38.4739 79.237 38.3915 79.0938C38.3092 78.9469 38.2017 78.827 38.0692 78.7339C37.9403 78.6408 37.7828 78.5942 37.5966 78.5942C37.4355 78.5942 37.2976 78.6318 37.183 78.707C37.072 78.7786 36.9807 78.8735 36.9091 78.9917C36.8375 79.1099 36.7838 79.2424 36.748 79.3892C36.7157 79.536 36.6996 79.6828 36.6996 79.8296C36.6996 79.9943 36.7193 80.1662 36.7587 80.3452C36.7981 80.5243 36.859 80.6872 36.9413 80.834C37.0237 80.9808 37.1293 81.1025 37.2582 81.1992C37.3907 81.2959 37.5482 81.3442 37.7309 81.3442ZM40.8192 77.3105C40.8121 77.3965 40.8049 77.4967 40.7978 77.6113C40.7942 77.7223 40.7906 77.8351 40.787 77.9497C40.7834 78.0607 40.7799 78.1663 40.7763 78.2666C40.7763 78.3633 40.7763 78.4421 40.7763 78.5029L41.6947 78.4868L41.7377 78.5244L41.7216 78.7983H40.7763V80.5278C40.7763 80.6675 40.7888 80.7821 40.8139 80.8716C40.8425 80.9611 40.8801 81.0327 40.9267 81.0864C40.9768 81.1401 41.0341 81.1777 41.0985 81.1992C41.163 81.2171 41.2328 81.2261 41.308 81.2261C41.3868 81.2261 41.4691 81.2171 41.5551 81.1992C41.641 81.1813 41.7252 81.1634 41.8075 81.1455L41.8451 81.3389C41.7055 81.4069 41.5551 81.4642 41.394 81.5107C41.2328 81.5609 41.0771 81.5859 40.9267 81.5859C40.8228 81.5859 40.7261 81.5716 40.6366 81.543C40.5507 81.5179 40.4737 81.4731 40.4057 81.4087C40.3376 81.3442 40.2839 81.2601 40.2445 81.1562C40.2087 81.0488 40.1908 80.9181 40.1908 80.7642V80.6191C40.1908 80.5547 40.1908 80.4508 40.1908 80.3076C40.1944 80.1644 40.1962 79.9728 40.1962 79.7329V78.7983H39.7128L39.6752 78.7607L39.6967 78.5513L40.1962 78.5137V78.0679C40.1962 77.9784 40.1944 77.887 40.1908 77.7939C40.1908 77.7008 40.1908 77.6113 40.1908 77.5254C40.2445 77.5039 40.3 77.4824 40.3573 77.4609C40.4146 77.4359 40.4701 77.4126 40.5238 77.3911C40.5775 77.3696 40.6241 77.3499 40.6635 77.332C40.7065 77.3105 40.7387 77.2926 40.7602 77.2783L40.8192 77.3105ZM43.8163 81.5C43.7017 81.5 43.5639 81.4982 43.4027 81.4946C43.2416 81.491 43.0751 81.4893 42.9032 81.4893C42.7636 81.4893 42.6275 81.491 42.495 81.4946C42.3625 81.4982 42.2462 81.5 42.1459 81.5L42.1352 81.3281C42.2533 81.3174 42.3464 81.3031 42.4145 81.2852C42.4861 81.2637 42.5416 81.2297 42.581 81.1831C42.6204 81.1366 42.6454 81.0739 42.6562 80.9951C42.6705 80.9128 42.6776 80.8035 42.6776 80.6675V79.2549C42.6776 79.1546 42.6723 79.0758 42.6615 79.0186C42.6508 78.9613 42.6275 78.9165 42.5917 78.8843C42.5595 78.8521 42.5093 78.827 42.4413 78.8091C42.3769 78.7912 42.2909 78.7733 42.1835 78.7554L42.1674 78.5996C42.2784 78.5781 42.3894 78.5566 42.5004 78.5352C42.615 78.5101 42.7206 78.485 42.8173 78.46C42.9176 78.4349 43.0053 78.4116 43.0805 78.3901C43.1593 78.3687 43.2183 78.349 43.2577 78.3311L43.3114 78.374C43.3007 78.4635 43.2917 78.5584 43.2846 78.6587C43.2774 78.759 43.272 78.8592 43.2685 78.9595C43.2649 79.0562 43.2613 79.1493 43.2577 79.2388C43.2577 79.3247 43.2577 79.3999 43.2577 79.4644V80.8877C43.2577 80.9736 43.2631 81.0435 43.2738 81.0972C43.2846 81.1473 43.3079 81.1867 43.3437 81.2153C43.383 81.244 43.4403 81.2637 43.5155 81.2744C43.5907 81.2852 43.6946 81.2941 43.8271 81.3013L43.8163 81.5ZM42.5648 77.042C42.5648 76.9238 42.6007 76.8289 42.6723 76.7573C42.7439 76.6821 42.8388 76.6445 42.9569 76.6445C43.0823 76.6445 43.1807 76.6821 43.2523 76.7573C43.3275 76.8289 43.3651 76.9238 43.3651 77.042C43.3651 77.1602 43.3275 77.2568 43.2523 77.332C43.1807 77.4036 43.0823 77.4395 42.9569 77.4395C42.8388 77.4395 42.7439 77.4036 42.6723 77.332C42.6007 77.2568 42.5648 77.1602 42.5648 77.042ZM45.2558 78.7983V80.8877C45.2558 80.9772 45.2647 81.0488 45.2826 81.1025C45.3005 81.1562 45.3345 81.1974 45.3847 81.2261C45.4348 81.2511 45.5046 81.269 45.5941 81.2798C45.6872 81.2905 45.809 81.2977 45.9594 81.3013L45.9433 81.5C45.886 81.5 45.8179 81.5 45.7392 81.5C45.6604 81.4964 45.5762 81.4946 45.4867 81.4946C45.3972 81.4946 45.3041 81.4946 45.2074 81.4946C45.1143 81.491 45.0248 81.4893 44.9389 81.4893C44.7992 81.4893 44.6596 81.491 44.5199 81.4946C44.3803 81.4982 44.2603 81.5 44.1601 81.5L44.144 81.3281C44.2621 81.3174 44.3552 81.3031 44.4232 81.2852C44.4949 81.2637 44.5486 81.2297 44.5844 81.1831C44.6238 81.1366 44.6488 81.0739 44.6596 80.9951C44.6739 80.9128 44.6811 80.8035 44.6811 80.6675V78.7983H44.1708L44.1332 78.7607L44.1547 78.5566L44.6811 78.5137V77.6758C44.6811 77.3392 44.7294 77.0456 44.8261 76.7949C44.9228 76.5443 45.057 76.333 45.2289 76.1611C45.3793 76.0107 45.5476 75.8997 45.7338 75.8281C45.92 75.7565 46.1205 75.7207 46.3354 75.7207C46.3891 75.7207 46.4499 75.7261 46.518 75.7368C46.5896 75.7476 46.6558 75.7673 46.7167 75.7959C46.7776 75.821 46.8295 75.8586 46.8725 75.9087C46.9154 75.9552 46.9369 76.0143 46.9369 76.0859C46.9369 76.2005 46.9065 76.2829 46.8456 76.333C46.7883 76.3831 46.7042 76.4279 46.5932 76.4673C46.5037 76.3849 46.3944 76.3133 46.2655 76.2524C46.1366 76.188 46.0077 76.1558 45.8788 76.1558C45.8072 76.1558 45.7374 76.1683 45.6693 76.1934C45.6049 76.2148 45.5476 76.2507 45.4975 76.3008C45.4366 76.3617 45.39 76.4368 45.3578 76.5264C45.3256 76.6159 45.3005 76.7126 45.2826 76.8164C45.2683 76.9202 45.2593 77.0295 45.2558 77.144C45.2558 77.255 45.2558 77.3625 45.2558 77.4663V78.5029L46.142 78.4868L46.185 78.5244L46.1689 78.7983H45.2558ZM49.703 78.374C49.6959 78.4349 49.6887 78.4886 49.6815 78.5352C49.6744 78.5817 49.6726 78.6497 49.6762 78.7393C49.8409 78.596 50.0092 78.4922 50.1811 78.4277C50.3529 78.3633 50.523 78.3311 50.6913 78.3311C50.8775 78.3311 51.0548 78.3687 51.2231 78.4438C51.3949 78.519 51.5453 78.6229 51.6742 78.7554C51.8031 78.8879 51.9052 79.0472 51.9804 79.2334C52.0592 79.416 52.0985 79.6147 52.0985 79.8296C52.0985 80.091 52.0484 80.3309 51.9482 80.5493C51.8515 80.7677 51.7172 80.9557 51.5453 81.1133C51.377 81.2673 51.1801 81.389 50.9545 81.4785C50.7289 81.5645 50.4872 81.6074 50.2294 81.6074C50.2043 81.6074 50.1703 81.6056 50.1273 81.6021C50.088 81.5985 50.0432 81.5931 49.9931 81.5859C49.9429 81.5788 49.8892 81.568 49.8319 81.5537C49.7782 81.543 49.7245 81.5286 49.6708 81.5107V83.2563C49.6708 83.3423 49.6762 83.4121 49.6869 83.4658C49.7012 83.5195 49.7317 83.5607 49.7782 83.5894C49.8284 83.6216 49.9018 83.6449 49.9984 83.6592C50.0987 83.6735 50.2348 83.6842 50.4066 83.6914L50.3959 83.8901C50.3386 83.8901 50.267 83.8883 50.1811 83.8848C50.0951 83.8848 50.002 83.8848 49.9018 83.8848C49.8051 83.8848 49.7066 83.883 49.6064 83.8794C49.5061 83.8794 49.413 83.8794 49.3271 83.8794C49.1874 83.8794 49.0496 83.8812 48.9135 83.8848C48.7774 83.8883 48.6593 83.8901 48.559 83.8901L48.5429 83.7183C48.6646 83.7075 48.7613 83.6914 48.8329 83.6699C48.9081 83.6484 48.9654 83.6144 49.0048 83.5679C49.0442 83.5249 49.0692 83.4622 49.08 83.3799C49.0943 83.3011 49.1015 83.1937 49.1015 83.0576V79.2764C49.1015 79.1761 49.0961 79.0973 49.0854 79.04C49.0746 78.9827 49.0496 78.938 49.0102 78.9058C48.9708 78.87 48.9135 78.8431 48.8383 78.8252C48.7667 78.8073 48.6682 78.7894 48.5429 78.7715L48.5268 78.6211C48.6342 78.5996 48.7434 78.5763 48.8544 78.5513C48.9654 78.5262 49.071 78.5011 49.1713 78.4761C49.2751 78.4474 49.3664 78.4206 49.4452 78.3955C49.5276 78.3704 49.592 78.349 49.6386 78.3311L49.703 78.374ZM49.6762 81.0005C49.7729 81.1115 49.8892 81.1903 50.0253 81.2368C50.1614 81.2834 50.2992 81.3066 50.4389 81.3066C50.6107 81.3066 50.7593 81.2726 50.8847 81.2046C51.01 81.1366 51.1138 81.0452 51.1962 80.9307C51.2786 80.8125 51.3394 80.6782 51.3788 80.5278C51.4218 80.3774 51.4433 80.2199 51.4433 80.0552C51.4433 79.8869 51.42 79.7257 51.3734 79.5718C51.3269 79.4142 51.2589 79.2764 51.1693 79.1582C51.0834 79.0365 50.9742 78.9398 50.8417 78.8682C50.7128 78.7965 50.5642 78.7607 50.3959 78.7607C50.0987 78.7607 49.8588 78.8377 49.6762 78.9917V81.0005ZM54.4887 79.7651C54.4923 79.7401 54.494 79.7096 54.494 79.6738V79.2817C54.494 79.0991 54.4493 78.9487 54.3598 78.8306C54.2738 78.7088 54.1342 78.6479 53.9408 78.6479C53.837 78.6479 53.7475 78.6676 53.6723 78.707C53.6007 78.7428 53.5398 78.7912 53.4897 78.8521C53.4431 78.9129 53.4073 78.9827 53.3822 79.0615C53.3607 79.1403 53.35 79.2227 53.35 79.3086C53.2927 79.3551 53.2139 79.3784 53.1137 79.3784C53.0313 79.3784 52.9525 79.3605 52.8773 79.3247C52.8057 79.2853 52.7699 79.228 52.7699 79.1528C52.7699 79.0955 52.7914 79.0365 52.8344 78.9756C52.8809 78.9147 52.94 78.8556 53.0116 78.7983C53.0868 78.7375 53.1692 78.6802 53.2587 78.6265C53.3482 78.5728 53.4395 78.5262 53.5326 78.4868C53.7725 78.383 54.0089 78.3311 54.2416 78.3311C54.3562 78.3311 54.4636 78.3472 54.5639 78.3794C54.6641 78.408 54.7519 78.4564 54.8271 78.5244C54.9023 78.5889 54.9613 78.673 55.0043 78.7769C55.0473 78.8807 55.0688 79.0042 55.0688 79.1475C55.0688 79.3623 55.0652 79.6112 55.058 79.894C55.0509 80.1733 55.0473 80.4849 55.0473 80.8286C55.0473 80.9683 55.0741 81.0775 55.1278 81.1562C55.1815 81.235 55.2567 81.2744 55.3534 81.2744C55.4394 81.2744 55.5325 81.244 55.6327 81.1831L55.7294 81.3281C55.647 81.4069 55.545 81.4714 55.4232 81.5215C55.3051 81.5716 55.1851 81.5967 55.0634 81.5967C54.9381 81.5967 54.8217 81.5627 54.7143 81.4946C54.6104 81.4266 54.5406 81.3102 54.5048 81.1455C54.469 81.1706 54.4135 81.2082 54.3383 81.2583C54.2631 81.3084 54.1772 81.3604 54.0805 81.4141C53.9838 81.4642 53.88 81.509 53.769 81.5483C53.6579 81.5877 53.5523 81.6074 53.4521 81.6074C53.3339 81.6074 53.2265 81.5859 53.1298 81.543C53.0331 81.5 52.949 81.4427 52.8773 81.3711C52.8093 81.2959 52.7556 81.2118 52.7162 81.1187C52.6804 81.022 52.6625 80.9199 52.6625 80.8125C52.6625 80.6299 52.7144 80.4741 52.8183 80.3452C52.9257 80.2127 53.0653 80.1107 53.2372 80.0391C53.3625 79.9889 53.529 79.9388 53.7367 79.8887C53.948 79.835 54.1986 79.7938 54.4887 79.7651ZM54.4779 80.8877C54.4779 80.7373 54.4797 80.5905 54.4833 80.4473C54.4869 80.304 54.4887 80.1572 54.4887 80.0068C54.392 80.0176 54.2935 80.0319 54.1933 80.0498C54.0966 80.0641 54.0017 80.0838 53.9086 80.1089C53.8155 80.134 53.7278 80.1662 53.6454 80.2056C53.5631 80.245 53.4932 80.2915 53.4359 80.3452C53.3464 80.424 53.3017 80.526 53.3017 80.6514C53.3017 80.8018 53.3393 80.9289 53.4145 81.0327C53.4932 81.1366 53.6132 81.1885 53.7743 81.1885C53.8889 81.1885 54.0089 81.1616 54.1342 81.1079C54.2595 81.0542 54.3741 80.9808 54.4779 80.8877ZM55.8368 78.5674L56.3256 78.5513V77.6919L56.3202 77.6328C56.3739 77.6113 56.4294 77.5898 56.4867 77.5684C56.544 77.5433 56.5977 77.52 56.6479 77.4985C56.7016 77.4771 56.7481 77.4574 56.7875 77.4395C56.8305 77.418 56.8627 77.4001 56.8842 77.3857L56.9433 77.418C56.9325 77.4824 56.9236 77.5666 56.9164 77.6704C56.9128 77.7743 56.911 77.9175 56.911 78.1001V78.5405L58.4257 78.519V78.0518C58.4257 77.9622 58.4239 77.8709 58.4203 77.7778C58.4203 77.6847 58.4203 77.5952 58.4203 77.5093C58.474 77.4878 58.5295 77.4663 58.5868 77.4448C58.6441 77.4198 58.6996 77.3965 58.7533 77.375C58.807 77.3535 58.8536 77.3338 58.893 77.3159C58.9359 77.2944 58.9682 77.2765 58.9897 77.2622L59.0487 77.2944C59.0416 77.384 59.0344 77.486 59.0273 77.6006C59.0237 77.7116 59.0201 77.8244 59.0165 77.939C59.0129 78.05 59.0093 78.1574 59.0058 78.2612C59.0058 78.3615 59.0058 78.4438 59.0058 78.5083L59.9242 78.4868L59.9672 78.5244L59.9511 78.7983H59.0058V80.5278C59.0058 80.6675 59.0183 80.7821 59.0434 80.8716C59.072 80.9611 59.1096 81.0327 59.1562 81.0864C59.2063 81.1401 59.2636 81.1777 59.328 81.1992C59.3925 81.2171 59.4623 81.2261 59.5375 81.2261C59.6163 81.2261 59.6986 81.2171 59.7846 81.1992C59.8705 81.1813 59.9547 81.1634 60.037 81.1455L60.0746 81.3389C59.935 81.4069 59.7846 81.4642 59.6234 81.5107C59.4623 81.5609 59.3065 81.5859 59.1562 81.5859C59.0523 81.5859 58.9556 81.5716 58.8661 81.543C58.7802 81.5179 58.7032 81.4731 58.6352 81.4087C58.5671 81.3442 58.5134 81.2601 58.474 81.1562C58.4382 81.0488 58.4203 80.9181 58.4203 80.7642V80.6191C58.4203 80.5547 58.4203 80.4508 58.4203 80.3076C58.4239 80.1644 58.4257 79.9728 58.4257 79.7329V78.7983H56.911V80.5278C56.911 80.6675 56.9236 80.7821 56.9486 80.8716C56.9773 80.9611 57.0149 81.0327 57.0614 81.0864C57.1116 81.1401 57.1689 81.1777 57.2333 81.1992C57.2978 81.2171 57.3676 81.2261 57.4428 81.2261C57.5216 81.2261 57.6039 81.2171 57.6898 81.1992C57.7758 81.1813 57.8599 81.1634 57.9423 81.1455L57.9799 81.3389C57.8402 81.4069 57.6898 81.4642 57.5287 81.5107C57.3676 81.5609 57.2118 81.5859 57.0614 81.5859C56.9576 81.5859 56.8609 81.5716 56.7714 81.543C56.6855 81.5179 56.6085 81.4731 56.5404 81.4087C56.4724 81.3442 56.4187 81.2601 56.3793 81.1562C56.3435 81.0488 56.3256 80.9181 56.3256 80.7642V80.6191C56.3256 80.5547 56.3256 80.4508 56.3256 80.3076C56.3292 80.1644 56.331 79.9728 56.331 79.7329V78.7983H55.8476L55.81 78.7607L55.8368 78.5674ZM63.1415 80.9038C63.0269 81.0542 62.9088 81.1759 62.787 81.269C62.6653 81.3586 62.5489 81.4284 62.4379 81.4785C62.3269 81.5286 62.2248 81.5627 62.1317 81.5806C62.0386 81.5985 61.9652 81.6074 61.9115 81.6074C61.6895 81.6074 61.4854 81.5662 61.2992 81.4839C61.113 81.4015 60.9519 81.2887 60.8158 81.1455C60.6833 81.0023 60.5795 80.8358 60.5043 80.646C60.4327 80.4526 60.3969 80.2485 60.3969 80.0337C60.3969 79.7938 60.4398 79.5718 60.5258 79.3677C60.6153 79.16 60.7317 78.9792 60.8749 78.8252C61.0217 78.6712 61.19 78.5513 61.3798 78.4653C61.5696 78.3758 61.7647 78.3311 61.9652 78.3311C62.1264 78.3311 62.2786 78.3579 62.4218 78.4116C62.5686 78.4618 62.6957 78.5352 62.8031 78.6318C62.9106 78.7285 62.9965 78.8449 63.0609 78.981C63.1254 79.117 63.1576 79.2692 63.1576 79.4375V79.5127L63.1523 79.5879C63.1343 79.6846 63.0842 79.7329 63.0019 79.7329H60.9716C60.9752 79.98 61.0128 80.1912 61.0844 80.3667C61.156 80.5422 61.2473 80.6854 61.3583 80.7964C61.4729 80.9074 61.6 80.9897 61.7397 81.0435C61.8793 81.0936 62.0172 81.1187 62.1532 81.1187C62.3 81.1187 62.4397 81.0936 62.5722 81.0435C62.7047 80.9933 62.8443 80.8949 62.9911 80.748L63.1415 80.9038ZM62.3466 79.4912C62.4182 79.4912 62.4648 79.4787 62.4862 79.4536C62.5077 79.425 62.5185 79.3784 62.5185 79.314C62.5185 79.2173 62.5023 79.126 62.4701 79.04C62.4379 78.9541 62.3913 78.8789 62.3305 78.8145C62.2696 78.75 62.1944 78.6999 62.1049 78.6641C62.0154 78.6283 61.9151 78.6104 61.8041 78.6104C61.7182 78.6104 61.6322 78.63 61.5463 78.6694C61.4604 78.7088 61.3798 78.7661 61.3046 78.8413C61.2294 78.9165 61.1632 79.0096 61.1059 79.1206C61.0522 79.228 61.0146 79.3516 60.9931 79.4912H62.3466ZM65.4081 81.5C65.3508 81.5 65.281 81.5 65.1986 81.5C65.1199 81.4964 65.0339 81.4946 64.9408 81.4946C64.8477 81.4946 64.7528 81.4946 64.6562 81.4946C64.5595 81.491 64.4682 81.4893 64.3822 81.4893C64.2426 81.4893 64.1083 81.491 63.9794 81.4946C63.8505 81.4982 63.7359 81.5 63.6357 81.5L63.6195 81.3281C63.7377 81.3174 63.8308 81.3031 63.8988 81.2852C63.9704 81.2637 64.0242 81.2297 64.06 81.1831C64.0994 81.1366 64.1244 81.0739 64.1352 80.9951C64.1495 80.9128 64.1566 80.8035 64.1566 80.6675V79.2764C64.1566 79.1761 64.1513 79.0973 64.1405 79.04C64.1298 78.9827 64.1065 78.938 64.0707 78.9058C64.0385 78.87 63.9884 78.8431 63.9203 78.8252C63.8523 78.8073 63.761 78.7894 63.6464 78.7715L63.6303 78.6211C63.727 78.6032 63.8272 78.5835 63.9311 78.562C64.0349 78.5369 64.1352 78.5119 64.2318 78.4868C64.3285 78.4582 64.418 78.4313 64.5004 78.4062C64.5863 78.3776 64.6562 78.3525 64.7099 78.3311L64.7743 78.374C64.7564 78.485 64.7457 78.596 64.7421 78.707C64.7385 78.8145 64.7367 78.9219 64.7367 79.0293C64.8513 78.8896 64.9551 78.7751 65.0482 78.6855C65.1449 78.5924 65.2327 78.5208 65.3114 78.4707C65.3902 78.417 65.4618 78.3812 65.5263 78.3633C65.5943 78.3418 65.6606 78.3311 65.725 78.3311C65.8181 78.3311 65.904 78.3543 65.9828 78.4009C66.0616 78.4474 66.101 78.5244 66.101 78.6318C66.101 78.7035 66.0652 78.7822 65.9936 78.8682C65.9219 78.9541 65.8271 79.0329 65.7089 79.1045C65.6444 79.0472 65.5764 79.0042 65.5048 78.9756C65.4368 78.9434 65.3616 78.9272 65.2792 78.9272C65.1968 78.9272 65.1073 78.9631 65.0107 79.0347C64.914 79.1063 64.8352 79.2101 64.7743 79.3462C64.7564 79.3856 64.7457 79.4214 64.7421 79.4536C64.7385 79.4823 64.7367 79.5216 64.7367 79.5718V80.8877C64.7367 80.9736 64.7421 81.0435 64.7528 81.0972C64.7672 81.1473 64.7976 81.1867 64.8441 81.2153C64.8907 81.244 64.9587 81.2637 65.0482 81.2744C65.1378 81.2852 65.2613 81.2941 65.4189 81.3013L65.4081 81.5ZM67.9916 81.5C67.877 81.5 67.7481 81.4982 67.6049 81.4946C67.4617 81.491 67.3041 81.4893 67.1322 81.4893C66.9926 81.4893 66.8529 81.491 66.7133 81.4946C66.5772 81.4982 66.4591 81.5 66.3588 81.5L66.3427 81.3281C66.4644 81.3174 66.5611 81.3013 66.6327 81.2798C66.7079 81.2583 66.7652 81.2261 66.8046 81.1831C66.8476 81.1366 66.8744 81.0739 66.8852 80.9951C66.8995 80.9128 66.9066 80.8035 66.9066 80.6675V79.2764C66.9066 79.1761 66.9013 79.0973 66.8905 79.04C66.8798 78.9827 66.8565 78.938 66.8207 78.9058C66.7885 78.87 66.7384 78.8431 66.6703 78.8252C66.6059 78.8073 66.5199 78.7894 66.4125 78.7715L66.3964 78.6211C66.4859 78.6032 66.5808 78.5817 66.6811 78.5566C66.7849 78.5316 66.8852 78.5065 66.9818 78.4814C67.0785 78.4528 67.168 78.4259 67.2504 78.4009C67.3363 78.3758 67.4062 78.3525 67.4599 78.3311L67.5243 78.374C67.5136 78.4492 67.5046 78.5244 67.4975 78.5996C67.4903 78.6712 67.4867 78.7446 67.4867 78.8198C67.6801 78.6659 67.8842 78.5459 68.099 78.46C68.3175 78.374 68.5251 78.3311 68.7221 78.3311C68.851 78.3311 68.9709 78.3525 69.0819 78.3955C69.1965 78.4349 69.295 78.4993 69.3773 78.5889C69.4597 78.6784 69.5242 78.793 69.5707 78.9326C69.6208 79.0687 69.6459 79.2352 69.6459 79.4321V80.8877C69.6459 80.9736 69.6513 81.0435 69.662 81.0972C69.6728 81.1473 69.6942 81.1867 69.7265 81.2153C69.7623 81.244 69.8142 81.2637 69.8822 81.2744C69.9503 81.2852 70.0416 81.2941 70.1562 81.3013L70.1454 81.5C70.0308 81.5 69.9037 81.4982 69.7641 81.4946C69.628 81.491 69.474 81.4893 69.3022 81.4893C69.1625 81.4893 69.0282 81.491 68.8993 81.4946C68.774 81.4982 68.6612 81.5 68.5609 81.5L68.5448 81.3281C68.6558 81.3174 68.7454 81.3031 68.8134 81.2852C68.8814 81.2673 68.9333 81.2386 68.9691 81.1992C69.005 81.1562 69.0282 81.0972 69.039 81.022C69.0497 80.9432 69.0551 80.8358 69.0551 80.6997V79.5664C69.0551 79.2799 68.9906 79.0741 68.8617 78.9487C68.7364 78.8198 68.5771 78.7554 68.3837 78.7554C68.2476 78.7554 68.1026 78.784 67.9486 78.8413C67.7947 78.895 67.6407 78.972 67.4867 79.0723V80.8877C67.4867 80.9736 67.4903 81.0435 67.4975 81.0972C67.5082 81.1473 67.5315 81.1867 67.5673 81.2153C67.6031 81.244 67.655 81.2637 67.7231 81.2744C67.7947 81.2852 67.8896 81.2941 68.0077 81.3013L67.9916 81.5ZM75.8817 75.7368C75.871 75.8263 75.8603 75.932 75.8495 76.0537C75.8424 76.1755 75.8352 76.2972 75.828 76.4189C75.8245 76.5407 75.8209 76.6553 75.8173 76.7627C75.8137 76.8701 75.8119 76.9561 75.8119 77.0205V80.6943C75.8119 80.7982 75.8173 80.8805 75.828 80.9414C75.8388 80.9987 75.8638 81.0435 75.9032 81.0757C75.9426 81.1079 75.9999 81.133 76.0751 81.1509C76.1539 81.1652 76.2577 81.1813 76.3866 81.1992L76.4081 81.3496C76.2935 81.3675 76.1772 81.3872 76.059 81.4087C75.9408 81.4266 75.8298 81.4463 75.726 81.4678C75.6257 81.4893 75.5362 81.509 75.4574 81.5269C75.3822 81.5483 75.3267 81.5645 75.2909 81.5752L75.2372 81.5322V81.1831C75.0618 81.3299 74.8845 81.4355 74.7055 81.5C74.53 81.568 74.3528 81.6021 74.1737 81.6021C73.9875 81.6021 73.8121 81.5662 73.6474 81.4946C73.4827 81.423 73.3376 81.3228 73.2123 81.1938C73.0906 81.0649 72.9939 80.9092 72.9223 80.7266C72.8507 80.5404 72.8148 80.3345 72.8148 80.1089C72.8148 79.8511 72.8632 79.6147 72.9599 79.3999C73.0601 79.1815 73.1944 78.9935 73.3627 78.8359C73.5346 78.6784 73.7333 78.5549 73.9589 78.4653C74.1845 78.3758 74.4262 78.3311 74.684 78.3311C74.7341 78.3311 74.8129 78.3364 74.9203 78.3472C75.0277 78.3543 75.1334 78.3704 75.2372 78.3955V76.6123C75.2372 76.512 75.2318 76.4333 75.2211 76.376C75.2104 76.3151 75.1835 76.2686 75.1405 76.2363C75.1011 76.2005 75.0421 76.1737 74.9633 76.1558C74.8881 76.1379 74.7843 76.1182 74.6518 76.0967L74.6357 75.9463C74.7681 75.9248 74.8988 75.9015 75.0277 75.8765C75.1566 75.8514 75.2748 75.8281 75.3822 75.8066C75.4932 75.7816 75.5863 75.7601 75.6615 75.7422C75.7403 75.7207 75.7958 75.7046 75.828 75.6938L75.8817 75.7368ZM75.2372 78.938C75.1405 78.827 75.0242 78.7446 74.8881 78.6909C74.752 78.6372 74.6142 78.6104 74.4745 78.6104C74.3026 78.6104 74.154 78.6462 74.0287 78.7178C73.9034 78.7894 73.7996 78.8843 73.7172 79.0024C73.6348 79.1206 73.5722 79.2567 73.5292 79.4106C73.4898 79.5646 73.4701 79.724 73.4701 79.8887C73.4701 80.057 73.4916 80.2199 73.5346 80.3774C73.5811 80.5314 73.6492 80.6675 73.7387 80.7856C73.8282 80.9038 73.9374 80.9987 74.0663 81.0703C74.1988 81.1419 74.3492 81.1777 74.5175 81.1777C74.6679 81.1777 74.8022 81.1562 74.9203 81.1133C75.0421 81.0667 75.1477 81.0059 75.2372 80.9307V78.938ZM79.4804 80.9038C79.3658 81.0542 79.2476 81.1759 79.1259 81.269C79.0041 81.3586 78.8878 81.4284 78.7768 81.4785C78.6658 81.5286 78.5637 81.5627 78.4706 81.5806C78.3775 81.5985 78.3041 81.6074 78.2504 81.6074C78.0284 81.6074 77.8243 81.5662 77.6381 81.4839C77.4519 81.4015 77.2908 81.2887 77.1547 81.1455C77.0222 81.0023 76.9184 80.8358 76.8432 80.646C76.7716 80.4526 76.7357 80.2485 76.7357 80.0337C76.7357 79.7938 76.7787 79.5718 76.8647 79.3677C76.9542 79.16 77.0705 78.9792 77.2138 78.8252C77.3606 78.6712 77.5289 78.5513 77.7187 78.4653C77.9084 78.3758 78.1036 78.3311 78.3041 78.3311C78.4652 78.3311 78.6174 78.3579 78.7607 78.4116C78.9075 78.4618 79.0346 78.5352 79.142 78.6318C79.2494 78.7285 79.3354 78.8449 79.3998 78.981C79.4643 79.117 79.4965 79.2692 79.4965 79.4375V79.5127L79.4911 79.5879C79.4732 79.6846 79.4231 79.7329 79.3407 79.7329H77.3105C77.314 79.98 77.3516 80.1912 77.4232 80.3667C77.4949 80.5422 77.5862 80.6854 77.6972 80.7964C77.8118 80.9074 77.9389 80.9897 78.0785 81.0435C78.2182 81.0936 78.356 81.1187 78.4921 81.1187C78.6389 81.1187 78.7786 81.0936 78.911 81.0435C79.0435 80.9933 79.1832 80.8949 79.33 80.748L79.4804 80.9038ZM78.6855 79.4912C78.7571 79.4912 78.8036 79.4787 78.8251 79.4536C78.8466 79.425 78.8573 79.3784 78.8573 79.314C78.8573 79.2173 78.8412 79.126 78.809 79.04C78.7768 78.9541 78.7302 78.8789 78.6693 78.8145C78.6085 78.75 78.5333 78.6999 78.4438 78.6641C78.3542 78.6283 78.254 78.6104 78.143 78.6104C78.057 78.6104 77.9711 78.63 77.8852 78.6694C77.7992 78.7088 77.7187 78.7661 77.6435 78.8413C77.5683 78.9165 77.502 79.0096 77.4447 79.1206C77.391 79.228 77.3534 79.3516 77.3319 79.4912H78.6855ZM81.9618 79.3516C81.9511 79.2406 81.9224 79.1385 81.8759 79.0454C81.8329 78.9487 81.7738 78.8664 81.6986 78.7983C81.627 78.7303 81.5429 78.6784 81.4462 78.6426C81.3495 78.6032 81.2457 78.5835 81.1347 78.5835C81.0666 78.5835 81.0004 78.5942 80.9359 78.6157C80.8751 78.6372 80.8196 78.6676 80.7694 78.707C80.7229 78.7464 80.6853 78.7965 80.6566 78.8574C80.628 78.9147 80.6137 78.981 80.6137 79.0562C80.6137 79.1457 80.6352 79.2244 80.6781 79.2925C80.7247 79.3569 80.7838 79.416 80.8554 79.4697C80.9306 79.5199 81.0147 79.5646 81.1078 79.604C81.2045 79.6434 81.303 79.6828 81.4032 79.7222C81.5142 79.7687 81.6234 79.8188 81.7309 79.8726C81.8419 79.9227 81.9403 79.9836 82.0263 80.0552C82.1122 80.1232 82.1802 80.2056 82.2304 80.3022C82.2841 80.3989 82.3109 80.5135 82.3109 80.646C82.3109 80.8143 82.2751 80.9593 82.2035 81.0811C82.1319 81.1992 82.0388 81.2977 81.9242 81.3765C81.8096 81.4552 81.6789 81.5125 81.5321 81.5483C81.3889 81.5877 81.2439 81.6074 81.0971 81.6074C81.004 81.6074 80.9091 81.6003 80.8124 81.5859C80.7193 81.5716 80.6316 81.5555 80.5492 81.5376C80.474 81.5197 80.4006 81.5036 80.329 81.4893C80.261 81.4714 80.1858 81.4588 80.1034 81.4517C80.0998 81.3908 80.0927 81.3138 80.0819 81.2207C80.0748 81.1276 80.0658 81.0327 80.0551 80.936C80.0443 80.8394 80.0318 80.748 80.0175 80.6621C80.0067 80.5726 79.9942 80.5028 79.9799 80.4526L80.1625 80.4043C80.2126 80.526 80.2681 80.6442 80.329 80.7588C80.3899 80.8734 80.4615 80.9754 80.5439 81.0649C80.6298 81.1509 80.7265 81.2207 80.8339 81.2744C80.9413 81.3281 81.0684 81.355 81.2152 81.355C81.3549 81.355 81.4784 81.3174 81.5858 81.2422C81.6933 81.1634 81.747 81.0452 81.747 80.8877C81.747 80.7982 81.7255 80.7194 81.6825 80.6514C81.6431 80.5798 81.5876 80.5171 81.516 80.4634C81.448 80.4097 81.3692 80.3631 81.2797 80.3237C81.1938 80.2808 81.1024 80.2396 81.0058 80.2002C80.8948 80.1536 80.7838 80.1053 80.6728 80.0552C80.5653 80.0015 80.4687 79.9406 80.3827 79.8726C80.2968 79.8009 80.227 79.7168 80.1732 79.6201C80.1195 79.5234 80.0927 79.4071 80.0927 79.271C80.0927 79.1063 80.1267 78.9648 80.1947 78.8467C80.2663 78.7285 80.3559 78.6318 80.4633 78.5566C80.5743 78.4779 80.6996 78.4206 80.8393 78.3848C80.9789 78.349 81.1186 78.3311 81.2582 78.3311C81.4014 78.3311 81.5429 78.3454 81.6825 78.374C81.8258 78.4027 81.9869 78.4206 82.1659 78.4277C82.1552 78.5423 82.148 78.6515 82.1444 78.7554C82.1409 78.8556 82.1391 78.9648 82.1391 79.083V79.3462L81.9618 79.3516ZM84.4325 81.5C84.3179 81.5 84.1801 81.4982 84.019 81.4946C83.8578 81.491 83.6913 81.4893 83.5194 81.4893C83.3798 81.4893 83.2437 81.491 83.1112 81.4946C82.9787 81.4982 82.8624 81.5 82.7621 81.5L82.7514 81.3281C82.8695 81.3174 82.9626 81.3031 83.0307 81.2852C83.1023 81.2637 83.1578 81.2297 83.1972 81.1831C83.2366 81.1366 83.2616 81.0739 83.2724 80.9951C83.2867 80.9128 83.2939 80.8035 83.2939 80.6675V79.2549C83.2939 79.1546 83.2885 79.0758 83.2777 79.0186C83.267 78.9613 83.2437 78.9165 83.2079 78.8843C83.1757 78.8521 83.1256 78.827 83.0575 78.8091C82.9931 78.7912 82.9071 78.7733 82.7997 78.7554L82.7836 78.5996C82.8946 78.5781 83.0056 78.5566 83.1166 78.5352C83.2312 78.5101 83.3368 78.485 83.4335 78.46C83.5338 78.4349 83.6215 78.4116 83.6967 78.3901C83.7755 78.3687 83.8345 78.349 83.8739 78.3311L83.9276 78.374C83.9169 78.4635 83.9079 78.5584 83.9008 78.6587C83.8936 78.759 83.8883 78.8592 83.8847 78.9595C83.8811 79.0562 83.8775 79.1493 83.8739 79.2388C83.8739 79.3247 83.8739 79.3999 83.8739 79.4644V80.8877C83.8739 80.9736 83.8793 81.0435 83.89 81.0972C83.9008 81.1473 83.9241 81.1867 83.9599 81.2153C83.9993 81.244 84.0565 81.2637 84.1317 81.2744C84.2069 81.2852 84.3108 81.2941 84.4433 81.3013L84.4325 81.5ZM83.1811 77.042C83.1811 76.9238 83.2169 76.8289 83.2885 76.7573C83.3601 76.6821 83.455 76.6445 83.5732 76.6445C83.6985 76.6445 83.7969 76.6821 83.8686 76.7573C83.9438 76.8289 83.9814 76.9238 83.9814 77.042C83.9814 77.1602 83.9438 77.2568 83.8686 77.332C83.7969 77.4036 83.6985 77.4395 83.5732 77.4395C83.455 77.4395 83.3601 77.4036 83.2885 77.332C83.2169 77.2568 83.1811 77.1602 83.1811 77.042ZM84.9052 79.604C84.9052 79.425 84.941 79.2585 85.0126 79.1045C85.0878 78.9469 85.1863 78.8109 85.308 78.6963C85.4333 78.5817 85.5766 78.4922 85.7377 78.4277C85.8988 78.3633 86.0689 78.3311 86.248 78.3311C86.5344 78.3311 86.7815 78.3919 86.9892 78.5137C87.0286 78.5387 87.0644 78.5566 87.0966 78.5674C87.1324 78.5745 87.1736 78.5781 87.2201 78.5781C87.2595 78.5745 87.2882 78.5728 87.3061 78.5728L88.1278 78.5137L88.1654 78.5566L88.1332 78.8682H87.3759C87.5227 79.0579 87.5961 79.2674 87.5961 79.4966C87.5961 79.7078 87.5531 79.894 87.4672 80.0552C87.3848 80.2163 87.2756 80.3524 87.1396 80.4634C87.0071 80.5708 86.8585 80.6532 86.6938 80.7104C86.5326 80.7642 86.3733 80.791 86.2157 80.791C86.0761 80.791 85.9275 80.7731 85.7699 80.7373C85.6876 80.7767 85.6177 80.8358 85.5605 80.9146C85.5067 80.9897 85.4799 81.0614 85.4799 81.1294C85.4799 81.1795 85.4978 81.2243 85.5336 81.2637C85.573 81.2995 85.6195 81.3299 85.6732 81.355C85.7305 81.38 85.7896 81.3979 85.8505 81.4087C85.9149 81.4194 85.9722 81.4248 86.0224 81.4248C86.162 81.4248 86.307 81.423 86.4574 81.4194C86.6114 81.4123 86.7546 81.4087 86.8871 81.4087C87.0303 81.4087 87.1736 81.423 87.3168 81.4517C87.46 81.4767 87.5889 81.5233 87.7035 81.5913C87.8217 81.6629 87.9166 81.7596 87.9882 81.8813C88.0598 82.0031 88.0956 82.1571 88.0956 82.3433C88.0956 82.5688 88.0455 82.7801 87.9452 82.9771C87.845 83.1776 87.7053 83.3494 87.5263 83.4927C87.3472 83.6395 87.1324 83.7541 86.8817 83.8364C86.6347 83.9224 86.3625 83.9653 86.0653 83.9653C85.9114 83.9653 85.752 83.9438 85.5873 83.9009C85.4262 83.8615 85.2794 83.7988 85.1469 83.7129C85.0144 83.6305 84.9052 83.5249 84.8192 83.396C84.7369 83.2707 84.6957 83.1221 84.6957 82.9502C84.6957 82.8285 84.719 82.7157 84.7655 82.6118C84.8121 82.5116 84.873 82.4185 84.9482 82.3325C85.0233 82.2466 85.1075 82.1678 85.2006 82.0962C85.2937 82.0246 85.3868 81.9565 85.4799 81.8921C85.3331 81.8384 85.206 81.7668 85.0985 81.6772C84.9947 81.5877 84.9428 81.4749 84.9428 81.3389C84.9428 81.278 84.9625 81.2135 85.0019 81.1455C85.0448 81.0775 85.095 81.0112 85.1523 80.9468C85.2095 80.8823 85.2704 80.8232 85.3349 80.7695C85.3993 80.7158 85.4548 80.6693 85.5014 80.6299C85.1039 80.4294 84.9052 80.0874 84.9052 79.604ZM86.3393 81.9565C86.2211 81.9565 86.1226 81.9565 86.0439 81.9565C85.9687 81.9601 85.906 81.9673 85.8559 81.978C85.8057 81.9888 85.761 82.0049 85.7216 82.0264C85.6822 82.0479 85.641 82.0765 85.5981 82.1123C85.4871 82.2054 85.4047 82.3092 85.351 82.4238C85.2973 82.542 85.2704 82.6637 85.2704 82.7891C85.2704 82.9359 85.3062 83.0594 85.3778 83.1597C85.4495 83.2599 85.5408 83.3405 85.6518 83.4014C85.7628 83.4658 85.8863 83.5124 86.0224 83.541C86.1584 83.5697 86.2909 83.584 86.4198 83.584C86.581 83.584 86.7331 83.5661 86.8764 83.5303C87.0196 83.498 87.1449 83.4443 87.2523 83.3691C87.3598 83.2939 87.4439 83.1973 87.5048 83.0791C87.5692 82.9609 87.6015 82.8195 87.6015 82.6548C87.6015 82.5044 87.5692 82.3791 87.5048 82.2788C87.4403 82.1785 87.3472 82.1034 87.2255 82.0532C87.1217 82.0067 87.0071 81.978 86.8817 81.9673C86.7564 81.9601 86.6114 81.9565 86.4467 81.9565H86.3393ZM86.3017 80.5547C86.4162 80.5547 86.5147 80.5278 86.5971 80.4741C86.6794 80.4204 86.7457 80.3506 86.7958 80.2646C86.8495 80.1787 86.8889 80.082 86.914 79.9746C86.939 79.8672 86.9516 79.7616 86.9516 79.6577C86.9516 79.5288 86.9372 79.3999 86.9086 79.271C86.8835 79.1385 86.8406 79.0203 86.7797 78.9165C86.7224 78.8127 86.6454 78.7285 86.5487 78.6641C86.4556 78.5996 86.3393 78.5674 86.1996 78.5674C86.0815 78.5674 85.9812 78.5942 85.8988 78.6479C85.8165 78.6981 85.7484 78.7661 85.6947 78.8521C85.6446 78.938 85.607 79.0347 85.5819 79.1421C85.5605 79.2459 85.5497 79.3516 85.5497 79.459C85.5497 79.5807 85.564 79.7061 85.5927 79.835C85.6213 79.9639 85.6643 80.082 85.7216 80.1895C85.7825 80.2969 85.8594 80.3846 85.9525 80.4526C86.0492 80.5207 86.1656 80.5547 86.3017 80.5547ZM90.0668 81.5C89.9522 81.5 89.8233 81.4982 89.6801 81.4946C89.5369 81.491 89.3793 81.4893 89.2074 81.4893C89.0678 81.4893 88.9281 81.491 88.7885 81.4946C88.6524 81.4982 88.5343 81.5 88.434 81.5L88.4179 81.3281C88.5396 81.3174 88.6363 81.3013 88.7079 81.2798C88.7831 81.2583 88.8404 81.2261 88.8798 81.1831C88.9228 81.1366 88.9496 81.0739 88.9604 80.9951C88.9747 80.9128 88.9818 80.8035 88.9818 80.6675V79.2764C88.9818 79.1761 88.9765 79.0973 88.9657 79.04C88.955 78.9827 88.9317 78.938 88.8959 78.9058C88.8637 78.87 88.8135 78.8431 88.7455 78.8252C88.6811 78.8073 88.5951 78.7894 88.4877 78.7715L88.4716 78.6211C88.5611 78.6032 88.656 78.5817 88.7563 78.5566C88.8601 78.5316 88.9604 78.5065 89.057 78.4814C89.1537 78.4528 89.2432 78.4259 89.3256 78.4009C89.4115 78.3758 89.4814 78.3525 89.5351 78.3311L89.5995 78.374C89.5888 78.4492 89.5798 78.5244 89.5727 78.5996C89.5655 78.6712 89.5619 78.7446 89.5619 78.8198C89.7553 78.6659 89.9594 78.5459 90.1742 78.46C90.3926 78.374 90.6003 78.3311 90.7973 78.3311C90.9262 78.3311 91.0461 78.3525 91.1571 78.3955C91.2717 78.4349 91.3702 78.4993 91.4525 78.5889C91.5349 78.6784 91.5994 78.793 91.6459 78.9326C91.696 79.0687 91.7211 79.2352 91.7211 79.4321V80.8877C91.7211 80.9736 91.7265 81.0435 91.7372 81.0972C91.748 81.1473 91.7694 81.1867 91.8017 81.2153C91.8375 81.244 91.8894 81.2637 91.9574 81.2744C92.0255 81.2852 92.1168 81.2941 92.2314 81.3013L92.2206 81.5C92.106 81.5 91.9789 81.4982 91.8393 81.4946C91.7032 81.491 91.5492 81.4893 91.3773 81.4893C91.2377 81.4893 91.1034 81.491 90.9745 81.4946C90.8492 81.4982 90.7364 81.5 90.6361 81.5L90.62 81.3281C90.731 81.3174 90.8205 81.3031 90.8886 81.2852C90.9566 81.2673 91.0085 81.2386 91.0443 81.1992C91.0801 81.1562 91.1034 81.0972 91.1142 81.022C91.1249 80.9432 91.1303 80.8358 91.1303 80.6997V79.5664C91.1303 79.2799 91.0658 79.0741 90.9369 78.9487C90.8116 78.8198 90.6523 78.7554 90.4589 78.7554C90.3228 78.7554 90.1778 78.784 90.0238 78.8413C89.8699 78.895 89.7159 78.972 89.5619 79.0723V80.8877C89.5619 80.9736 89.5655 81.0435 89.5727 81.0972C89.5834 81.1473 89.6067 81.1867 89.6425 81.2153C89.6783 81.244 89.7302 81.2637 89.7982 81.2744C89.8699 81.2852 89.9648 81.2941 90.0829 81.3013L90.0668 81.5ZM95.3896 80.9038C95.275 81.0542 95.1568 81.1759 95.0351 81.269C94.9133 81.3586 94.7969 81.4284 94.6859 81.4785C94.5749 81.5286 94.4729 81.5627 94.3798 81.5806C94.2867 81.5985 94.2133 81.6074 94.1596 81.6074C93.9376 81.6074 93.7335 81.5662 93.5473 81.4839C93.3611 81.4015 93.1999 81.2887 93.0639 81.1455C92.9314 81.0023 92.8275 80.8358 92.7523 80.646C92.6807 80.4526 92.6449 80.2485 92.6449 80.0337C92.6449 79.7938 92.6879 79.5718 92.7738 79.3677C92.8634 79.16 92.9797 78.9792 93.123 78.8252C93.2698 78.6712 93.4381 78.5513 93.6278 78.4653C93.8176 78.3758 94.0128 78.3311 94.2133 78.3311C94.3744 78.3311 94.5266 78.3579 94.6698 78.4116C94.8166 78.4618 94.9438 78.5352 95.0512 78.6318C95.1586 78.7285 95.2445 78.8449 95.309 78.981C95.3734 79.117 95.4057 79.2692 95.4057 79.4375V79.5127L95.4003 79.5879C95.3824 79.6846 95.3323 79.7329 95.2499 79.7329H93.2196C93.2232 79.98 93.2608 80.1912 93.3324 80.3667C93.404 80.5422 93.4954 80.6854 93.6064 80.7964C93.7209 80.9074 93.8481 80.9897 93.9877 81.0435C94.1273 81.0936 94.2652 81.1187 94.4013 81.1187C94.5481 81.1187 94.6877 81.0936 94.8202 81.0435C94.9527 80.9933 95.0924 80.8949 95.2392 80.748L95.3896 80.9038ZM94.5946 79.4912C94.6662 79.4912 94.7128 79.4787 94.7343 79.4536C94.7558 79.425 94.7665 79.3784 94.7665 79.314C94.7665 79.2173 94.7504 79.126 94.7182 79.04C94.6859 78.9541 94.6394 78.8789 94.5785 78.8145C94.5176 78.75 94.4425 78.6999 94.3529 78.6641C94.2634 78.6283 94.1632 78.6104 94.0522 78.6104C93.9662 78.6104 93.8803 78.63 93.7943 78.6694C93.7084 78.7088 93.6278 78.7661 93.5526 78.8413C93.4774 78.9165 93.4112 79.0096 93.3539 79.1206C93.3002 79.228 93.2626 79.3516 93.2411 79.4912H94.5946ZM97.6562 81.5C97.5989 81.5 97.529 81.5 97.4467 81.5C97.3679 81.4964 97.282 81.4946 97.1889 81.4946C97.0958 81.4946 97.0009 81.4946 96.9042 81.4946C96.8075 81.491 96.7162 81.4893 96.6303 81.4893C96.4906 81.4893 96.3564 81.491 96.2274 81.4946C96.0985 81.4982 95.984 81.5 95.8837 81.5L95.8676 81.3281C95.9857 81.3174 96.0788 81.3031 96.1469 81.2852C96.2185 81.2637 96.2722 81.2297 96.308 81.1831C96.3474 81.1366 96.3725 81.0739 96.3832 80.9951C96.3975 80.9128 96.4047 80.8035 96.4047 80.6675V79.2764C96.4047 79.1761 96.3993 79.0973 96.3886 79.04C96.3778 78.9827 96.3546 78.938 96.3188 78.9058C96.2865 78.87 96.2364 78.8431 96.1684 78.8252C96.1003 78.8073 96.009 78.7894 95.8944 78.7715L95.8783 78.6211C95.975 78.6032 96.0753 78.5835 96.1791 78.562C96.2829 78.5369 96.3832 78.5119 96.4799 78.4868C96.5766 78.4582 96.6661 78.4313 96.7484 78.4062C96.8344 78.3776 96.9042 78.3525 96.9579 78.3311L97.0224 78.374C97.0045 78.485 96.9937 78.596 96.9901 78.707C96.9866 78.8145 96.9848 78.9219 96.9848 79.0293C97.0994 78.8896 97.2032 78.7751 97.2963 78.6855C97.393 78.5924 97.4807 78.5208 97.5595 78.4707C97.6383 78.417 97.7099 78.3812 97.7743 78.3633C97.8424 78.3418 97.9086 78.3311 97.9731 78.3311C98.0662 78.3311 98.1521 78.3543 98.2309 78.4009C98.3096 78.4474 98.349 78.5244 98.349 78.6318C98.349 78.7035 98.3132 78.7822 98.2416 78.8682C98.17 78.9541 98.0751 79.0329 97.9569 79.1045C97.8925 79.0472 97.8245 79.0042 97.7528 78.9756C97.6848 78.9434 97.6096 78.9272 97.5273 78.9272C97.4449 78.9272 97.3554 78.9631 97.2587 79.0347C97.162 79.1063 97.0832 79.2101 97.0224 79.3462C97.0045 79.3856 96.9937 79.4214 96.9901 79.4536C96.9866 79.4823 96.9848 79.5216 96.9848 79.5718V80.8877C96.9848 80.9736 96.9901 81.0435 97.0009 81.0972C97.0152 81.1473 97.0456 81.1867 97.0922 81.2153C97.1387 81.244 97.2068 81.2637 97.2963 81.2744C97.3858 81.2852 97.5093 81.2941 97.6669 81.3013L97.6562 81.5Z" fill="white" fill-opacity="0.7"/>
</svg>
